<svg xmlns="http://www.w3.org/2000/svg" width="200.181" height="142.226" viewBox="0 0 200.181 142.226">
  <path id="Icon_awesome-user-friends" data-name="Icon awesome-user-friends" d="M57.954,69.863A33.807,33.807,0,1,0,24.148,36.057,33.79,33.79,0,0,0,57.954,69.863Zm23.182,9.659H78.631a46.675,46.675,0,0,1-41.353,0H34.773A34.781,34.781,0,0,0,0,114.295v8.693a14.492,14.492,0,0,0,14.489,14.489H101.42a14.492,14.492,0,0,0,14.489-14.489v-8.693A34.781,34.781,0,0,0,81.136,79.522Zm63.75-9.659a28.977,28.977,0,1,0-28.977-28.977A28.985,28.985,0,0,0,144.885,69.863Zm14.489,9.659h-1.147a38.063,38.063,0,0,1-26.683,0H130.4a33.526,33.526,0,0,0-16.813,4.648,44.173,44.173,0,0,1,11.983,30.124v11.591c0,.664-.151,1.3-.181,1.932h53.306a14.492,14.492,0,0,0,14.489-14.489,33.79,33.79,0,0,0-33.807-33.807Z" transform="translate(3.5 1.25)" fill="none" stroke="#517494" stroke-width="7"/>
</svg>
