<svg xmlns="http://www.w3.org/2000/svg" width="201.667" height="143.191" viewBox="0 0 201.667 143.191">
  <path id="Icon_awesome-users-cog" data-name="Icon awesome-users-cog" d="M185.632,96.274a35.668,35.668,0,0,0,0-12.953l7.845-4.531a2.2,2.2,0,0,0,1-2.585,45.631,45.631,0,0,0-10.095-17.453,2.218,2.218,0,0,0-2.737-.426L173.8,62.857a35.7,35.7,0,0,0-11.22-6.477V47.319a2.214,2.214,0,0,0-1.733-2.159,45.877,45.877,0,0,0-20.129,0,2.214,2.214,0,0,0-1.733,2.159v9.061a35.7,35.7,0,0,0-11.22,6.477l-7.845-4.531a2.224,2.224,0,0,0-2.737.426,45.631,45.631,0,0,0-10.095,17.453,2.24,2.24,0,0,0,1,2.585l7.845,4.531a35.669,35.669,0,0,0,0,12.953L108.1,100.8a2.2,2.2,0,0,0-1,2.585,45.858,45.858,0,0,0,10.095,17.453,2.218,2.218,0,0,0,2.737.426l7.845-4.531a35.7,35.7,0,0,0,11.22,6.477v9.061a2.214,2.214,0,0,0,1.733,2.159,45.876,45.876,0,0,0,20.129,0,2.214,2.214,0,0,0,1.733-2.159v-9.061a35.7,35.7,0,0,0,11.22-6.477l7.845,4.531a2.224,2.224,0,0,0,2.737-.426,45.631,45.631,0,0,0,10.095-17.453,2.24,2.24,0,0,0-1-2.585l-7.845-4.531Zm-34.815,8.271A14.747,14.747,0,1,1,165.563,89.8,14.761,14.761,0,0,1,150.816,104.544ZM29.19,60.607A19.46,19.46,0,1,0,9.73,41.147,19.478,19.478,0,0,0,29.19,60.607ZM97.3,70.337c.578,0,1.125-.152,1.7-.182a56.054,56.054,0,0,1,11.038-18,11.985,11.985,0,0,1,8.787-3.831,11.687,11.687,0,0,1,5.96,1.612l2.4,1.4c.243-.152.487-.274.73-.426a33.656,33.656,0,0,0,3.406-14.6A34.04,34.04,0,1,0,97.3,70.337Zm31.988,59.141c-.7-.365-1.4-.791-2.068-1.186-2.493,1.46-4.652,2.98-8.362,2.98a12.086,12.086,0,0,1-8.787-3.831,55.444,55.444,0,0,1-12.223-21.163c-3.254-10.49,7.571-15.112,7.845-15.294q-.046-1.186,0-2.372l-2.4-1.4a12.386,12.386,0,0,1-2.98-2.463c-1,.061-1.976.182-2.98.182A48,48,0,0,1,76.5,80.067H73.979A35.044,35.044,0,0,0,38.92,115.1v8.757a14.6,14.6,0,0,0,14.6,14.6h77.658a11.708,11.708,0,0,1-1.885-6.173ZM52.634,75.993A19.4,19.4,0,0,0,38.92,70.337H19.46A19.478,19.478,0,0,0,0,89.8v9.73a9.72,9.72,0,0,0,9.73,9.73H29.768A44.589,44.589,0,0,1,52.634,75.993Z" transform="translate(3.5 1.243)" fill="none" stroke="#517494" stroke-width="7"/>
</svg>
