<svg xmlns="http://www.w3.org/2000/svg" width="28.067" height="37.549" viewBox="0 0 28.067 37.549">
  <g id="Group_5484" data-name="Group 5484" transform="translate(-74.753 -59.983)">
    <path id="Path_5317" data-name="Path 5317" d="M87.679,113.474h0l-9.554,9.5a9.055,9.055,0,0,0-1.223,2.166c-.055.111-.167.334-.278.612l-.333.611c-3.221,6.609,4.277,4.168,6.832,1.555l9.5-9.5Z" transform="translate(0 -43.297)" fill="none" stroke="#517494" stroke-linecap="round" stroke-miterlimit="10" stroke-width="1.5" fill-rule="evenodd"/>
    <path id="Path_5318" data-name="Path 5318" d="M154.84,65.287h0a4.154,4.154,0,0,0-1.334-3.165,4.209,4.209,0,0,0-3.222-1.389h-.055a4.272,4.272,0,0,0-3.11,1.278L145.23,63.9l-.278-.278a1.706,1.706,0,0,0-1.445-.556,1.846,1.846,0,0,0-1.389.556L140.343,65.4a1.841,1.841,0,0,0-.557,1.389,2.963,2.963,0,0,0,.055.722l8.11,8.11v.056a3.164,3.164,0,0,0,.834.167,1.934,1.934,0,0,0,1.387-.666l1.778-1.722a2.155,2.155,0,0,0,0-2.888l-.333-.222,1.944-1.889a4.006,4.006,0,0,0,1.278-3.167Z" transform="translate(-52.775 0)" fill="none" stroke="#517494" stroke-linecap="round" stroke-miterlimit="10" stroke-width="1.5" fill-rule="evenodd"/>
    <path id="Path_5319" data-name="Path 5319" d="M81.687,220.955l-2.61-5.111-2.666,5.111c-.5,1.775,1.223,3.164,2.666,3.164s3.223-1.389,2.61-3.164Z" transform="translate(-0.675 -127.338)" fill="none" stroke="#517494" stroke-linecap="round" stroke-miterlimit="10" stroke-width="1.5" fill-rule="evenodd"/>
  </g>
</svg>
