<svg xmlns="http://www.w3.org/2000/svg" width="29.163" height="29.211" viewBox="0 0 29.163 29.211">
  <g id="Group_5472" data-name="Group 5472" transform="translate(-655.805 -389.881)">
    <g id="_109_Arrow_Delivery_Logistic_Packing_Service" data-name="109, Arrow, Delivery, Logistic, Packing, Service" transform="translate(655.805 389.881)">
      <g id="Group_5471" data-name="Group 5471" transform="translate(0 0)">
        <path id="Path_5300" data-name="Path 5300" d="M684.385,395.947H669.828v-3.057a.631.631,0,0,0-1.261,0v8.492a.642.642,0,0,0,.631.631h1.164l-3.591,4.512-3.591-4.512h1.165a.642.642,0,0,0,.631-.631V390.512a.631.631,0,1,0-1.261,0V396h-7.279a.642.642,0,0,0-.631.631v21.835a.642.642,0,0,0,.631.631h27.9a.642.642,0,0,0,.631-.631V396.626A.617.617,0,0,0,684.385,395.947Zm-3.639,1.213v6.7H678.32v-6.7Zm-23.679,20.622V397.16h6.7V400.8h-1.844a.615.615,0,0,0-.485.97l4.852,6.065a.648.648,0,0,0,.971,0l4.852-6.065a.59.59,0,0,0-.485-.97H669.78V397.16h3.639v20.622Zm26.688,0h-9.074V397.16h2.426v7.279a.642.642,0,0,0,.631.631h3.639a.642.642,0,0,0,.631-.631V397.16h1.844l-.1,20.622Z" transform="translate(-655.805 -389.881)" fill="#517494"/>
        <path id="Path_5301" data-name="Path 5301" d="M716.471,495.405h-3.057a.643.643,0,0,0-.631.631v3.057a.643.643,0,0,0,.631.631h3.057a.642.642,0,0,0,.631-.631v-3.057A.611.611,0,0,0,716.471,495.405Zm-.583,3.008h-1.844v-1.844h1.844Z" transform="translate(-700.652 -472.939)" fill="#517494"/>
        <path id="Path_5302" data-name="Path 5302" d="M690.946,495.405H687.89a.642.642,0,0,0-.631.631v3.057a.642.642,0,0,0,.631.631h3.057a.642.642,0,0,0,.631-.631v-3.057A.64.64,0,0,0,690.946,495.405Zm-.631,3.008h-1.844v-1.844h1.844Z" transform="translate(-680.562 -472.939)" fill="#517494"/>
        <path id="Path_5303" data-name="Path 5303" d="M704.983,399.586a.642.642,0,0,0,.631-.631v-8.443a.631.631,0,1,0-1.261,0V399A.633.633,0,0,0,704.983,399.586Z" transform="translate(-694.016 -389.881)" fill="#517494"/>
      </g>
    </g>
  </g>
</svg>
