<svg xmlns="http://www.w3.org/2000/svg" width="18.265" height="25.25" viewBox="0 0 18.265 25.25">
  <g id="Group_5481" data-name="Group 5481" transform="translate(0.75 0.75)">
    <rect id="Rectangle_3347" data-name="Rectangle 3347" width="16.765" height="23.75" rx="2.396" fill="none" stroke="#517494" stroke-linecap="round" stroke-miterlimit="10" stroke-width="1.5"/>
    <g id="Group_5478" data-name="Group 5478" transform="translate(2.829 2.843)">
      <g id="Group_5475" data-name="Group 5475">
        <path id="Path_5304" data-name="Path 5304" d="M586.034,855.376a2.188,2.188,0,1,0-2.189,2.188A2.188,2.188,0,0,0,586.034,855.376Z" transform="translate(-581.658 -853.188)" fill="none" stroke="#517494" stroke-linecap="round" stroke-miterlimit="10" stroke-width="1.5"/>
        <path id="Path_5305" data-name="Path 5305" d="M593.914,855.376a2.188,2.188,0,1,0-2.189,2.188A2.188,2.188,0,0,0,593.914,855.376Z" transform="translate(-582.806 -853.188)" fill="none" stroke="#517494" stroke-linecap="round" stroke-miterlimit="10" stroke-width="1.5"/>
      </g>
      <g id="Group_5476" data-name="Group 5476" transform="translate(0 6.844)">
        <path id="Path_5306" data-name="Path 5306" d="M586.034,863.388a2.188,2.188,0,1,0-2.189,2.188A2.188,2.188,0,0,0,586.034,863.388Z" transform="translate(-581.658 -861.2)" fill="none" stroke="#517494" stroke-linecap="round" stroke-miterlimit="10" stroke-width="1.5"/>
        <path id="Path_5307" data-name="Path 5307" d="M593.914,863.388a2.188,2.188,0,1,0-2.189,2.188A2.188,2.188,0,0,0,593.914,863.388Z" transform="translate(-582.806 -861.2)" fill="none" stroke="#517494" stroke-linecap="round" stroke-miterlimit="10" stroke-width="1.5"/>
      </g>
      <g id="Group_5477" data-name="Group 5477" transform="translate(0 13.689)">
        <path id="Path_5308" data-name="Path 5308" d="M586.034,871.4a2.188,2.188,0,1,0-2.189,2.188A2.188,2.188,0,0,0,586.034,871.4Z" transform="translate(-581.658 -869.212)" fill="none" stroke="#517494" stroke-linecap="round" stroke-miterlimit="10" stroke-width="1.5"/>
        <path id="Path_5309" data-name="Path 5309" d="M593.914,871.4a2.188,2.188,0,1,0-2.189,2.188A2.188,2.188,0,0,0,593.914,871.4Z" transform="translate(-582.806 -869.212)" fill="none" stroke="#517494" stroke-linecap="round" stroke-miterlimit="10" stroke-width="1.5"/>
      </g>
    </g>
  </g>
</svg>
