<svg xmlns="http://www.w3.org/2000/svg" width="24.208" height="27.086" viewBox="0 0 24.208 27.086">
  <g id="Group_5482" data-name="Group 5482" transform="translate(-127.374 -797.49)">
    <path id="Path_5310" data-name="Path 5310" d="M149.1,803.379h-2.186v-2.944a2.186,2.186,0,0,0-.644-1.548l0,0a2.184,2.184,0,0,0-1.547-.644h-10.49a2.191,2.191,0,0,0-1.548.645v0l0,0a2.19,2.19,0,0,0-.644,1.547v2.944h-2.184a1.734,1.734,0,0,0-1.729,1.728v2.76a1.733,1.733,0,0,0,.895,1.512v12.675a1.777,1.777,0,0,0,1.772,1.771h17.373a1.777,1.777,0,0,0,1.771-1.771V809.38a1.734,1.734,0,0,0,.9-1.512v-2.76A1.735,1.735,0,0,0,149.1,803.379Zm-15.2-2.944a.323.323,0,0,1,.093-.229l0,0a.324.324,0,0,1,.229-.093h10.49a.329.329,0,0,1,.23.093l0,0a.329.329,0,0,1,.093.23v2.944h-11.14Z" transform="translate(0)" fill="none" stroke="#517494" stroke-miterlimit="10" stroke-width="1.5" fill-rule="evenodd"/>
    <line id="Line_553" data-name="Line 553" x2="20.916" transform="translate(129.019 809.38)" fill="none" stroke="#517494" stroke-miterlimit="10" stroke-width="1.5"/>
  </g>
</svg>
