<svg xmlns="http://www.w3.org/2000/svg" width="35.024" height="36.68" viewBox="0 0 35.024 36.68">
  <g id="Group_5483" data-name="Group 5483" transform="translate(-199.775 -99.317)">
    <path id="Path_5311" data-name="Path 5311" d="M275.362,206.986h0l8.875,11.418a7.258,7.258,0,0,0-8.875-11.418Z" transform="translate(-60.315 -85.291)" fill="none" stroke="#517494" stroke-miterlimit="10" stroke-width="1.5" fill-rule="evenodd"/>
    <path id="Path_5312" data-name="Path 5312" d="M289.317,141.832h0l6.821,5.3a5.915,5.915,0,0,0,4.221,1.029A5.58,5.58,0,0,0,304.148,146l.324-.433a5.852,5.852,0,0,0,.811-5.251,5.264,5.264,0,0,0-2-2.7l-6.819-5.305Z" transform="translate(-71.564 -25.983)" fill="none" stroke="#517494" stroke-miterlimit="10" stroke-width="1.5" fill-rule="evenodd"/>
    <path id="Path_5313" data-name="Path 5313" d="M243.122,102.374h0l-.326.377a5.814,5.814,0,0,0-.811,5.307,5.379,5.379,0,0,0,1.948,2.7l6.278,4.71,7.089-9.58-6.224-4.71a5.7,5.7,0,0,0-7.954,1.193Z" transform="translate(-33.161)" fill="none" stroke="#517494" stroke-miterlimit="10" stroke-width="1.5" fill-rule="evenodd"/>
    <path id="Path_5314" data-name="Path 5314" d="M200.867,185.081h0l13.259-5.575a7.215,7.215,0,0,0-13.259,5.575Z" transform="translate(0 -60.895)" fill="none" stroke="#517494" stroke-miterlimit="10" stroke-width="1.5" fill-rule="evenodd"/>
    <path id="Path_5315" data-name="Path 5315" d="M268.162,228.266h0a7.218,7.218,0,0,1-8.823-11.365Z" transform="translate(-45.537 -94.177)" fill="none" stroke="#517494" stroke-miterlimit="10" stroke-width="1.5" fill-rule="evenodd"/>
    <path id="Path_5316" data-name="Path 5316" d="M217.686,205.061l-.435.432a7.916,7.916,0,0,0-2.435,6.5c-.108.052-.216.108-.324.16a7.39,7.39,0,0,1-9.2-3.354l13.315-5.574a6.308,6.308,0,0,1,.216,1.082c-.054,0-.108.053-.216.108l-.487.269Z" transform="translate(-3.828 -83.15)" fill="none" stroke="#517494" stroke-miterlimit="10" stroke-width="1.5" fill-rule="evenodd"/>
  </g>
</svg>
