<svg xmlns="http://www.w3.org/2000/svg" width="18.464" height="25.782" viewBox="0 0 18.464 25.782">
  <g id="Group_5480" data-name="Group 5480" transform="translate(-574.288 -844.668)">
    <g id="Group_5474" data-name="Group 5474" transform="translate(575.038 845.418)">
      <g id="Group_5473" data-name="Group 5473">
        <rect id="Rectangle_3346" data-name="Rectangle 3346" width="16.964" height="24.282" rx="4.201" fill="none" stroke="#517494" stroke-linecap="round" stroke-miterlimit="10" stroke-width="1.5"/>
      </g>
    </g>
    <g id="Group_5479" data-name="Group 5479" transform="translate(577.198 848.318)">
      <rect id="Rectangle_3347" data-name="Rectangle 3347" width="12.814" height="18.153" rx="2.396" fill="none" stroke="#517494" stroke-linecap="round" stroke-miterlimit="10" stroke-width="1.5"/>
      <g id="Group_5478" data-name="Group 5478" transform="translate(2.162 2.173)">
        <g id="Group_5475" data-name="Group 5475">
          <path id="Path_5304" data-name="Path 5304" d="M585,854.86a1.672,1.672,0,1,0-1.673,1.672A1.672,1.672,0,0,0,585,854.86Z" transform="translate(-581.658 -853.188)" fill="none" stroke="#517494" stroke-linecap="round" stroke-miterlimit="10" stroke-width="1.5"/>
          <path id="Path_5305" data-name="Path 5305" d="M592.883,854.86a1.672,1.672,0,1,0-1.673,1.672A1.672,1.672,0,0,0,592.883,854.86Z" transform="translate(-584.393 -853.188)" fill="none" stroke="#517494" stroke-linecap="round" stroke-miterlimit="10" stroke-width="1.5"/>
        </g>
        <g id="Group_5476" data-name="Group 5476" transform="translate(0 5.231)">
          <path id="Path_5306" data-name="Path 5306" d="M585,862.872a1.672,1.672,0,1,0-1.673,1.672A1.672,1.672,0,0,0,585,862.872Z" transform="translate(-581.658 -861.2)" fill="none" stroke="#517494" stroke-linecap="round" stroke-miterlimit="10" stroke-width="1.5"/>
          <path id="Path_5307" data-name="Path 5307" d="M592.883,862.872a1.672,1.672,0,1,0-1.673,1.672A1.672,1.672,0,0,0,592.883,862.872Z" transform="translate(-584.393 -861.2)" fill="none" stroke="#517494" stroke-linecap="round" stroke-miterlimit="10" stroke-width="1.5"/>
        </g>
        <g id="Group_5477" data-name="Group 5477" transform="translate(0 10.462)">
          <path id="Path_5308" data-name="Path 5308" d="M585,870.884a1.672,1.672,0,1,0-1.673,1.672A1.672,1.672,0,0,0,585,870.884Z" transform="translate(-581.658 -869.212)" fill="none" stroke="#517494" stroke-linecap="round" stroke-miterlimit="10" stroke-width="1.5"/>
          <path id="Path_5309" data-name="Path 5309" d="M592.883,870.884a1.672,1.672,0,1,0-1.673,1.672A1.672,1.672,0,0,0,592.883,870.884Z" transform="translate(-584.393 -869.212)" fill="none" stroke="#517494" stroke-linecap="round" stroke-miterlimit="10" stroke-width="1.5"/>
        </g>
      </g>
    </g>
  </g>
</svg>
