<svg xmlns="http://www.w3.org/2000/svg" width="29.5" height="20.786" viewBox="0 0 29.5 20.786">
  <g id="Component_14_4" data-name="Component 14 – 4" transform="translate(0.5 0.5)">
    <g id="Shoping_Icon" data-name="Shoping Icon" transform="translate(0 6.214)">
      <path id="Shoping_Icon-2" data-name="Shoping Icon" d="M44.185,367H41.343a1.343,1.343,0,0,0-.983.363,1.374,1.374,0,0,0-.36.994v.679a1.374,1.374,0,0,0,.36.994,1.343,1.343,0,0,0,.983.363h.111l4.087,9.969a.336.336,0,0,0,.31.209h11.8a.336.336,0,0,0,.31-.209l4.087-9.969h.111a1.343,1.343,0,0,0,.983-.363,1.374,1.374,0,0,0,.36-.994v-.679a1.374,1.374,0,0,0-.36-.994,1.343,1.343,0,0,0-.983-.363H59.315m-.807,0H44.992m7.093,8.482h3.206l-.868,4.41H52.086Zm-.671,4.41H49.076l-.868-4.41h3.206Zm.671-5.089v-4.411h4.209l-.869,4.411Zm-.671,0h-3.34l-.869-4.411h4.209Zm-4.893-4.411.868,4.411h-3.4l-1.808-4.411Zm-2.253,5.09h3.255l.868,4.41H46.076Zm13.157,4.41H55.108l.868-4.41h3.255ZM59.51,374.8h-3.4l.868-4.411h4.34Zm3.318-5.768a.7.7,0,0,1-.163.514.681.681,0,0,1-.508.165H41.343a.681.681,0,0,1-.508-.165.7.7,0,0,1-.163-.514v-.679a.7.7,0,0,1,.163-.514.681.681,0,0,1,.508-.165H62.157a.681.681,0,0,1,.508.165.7.7,0,0,1,.163.514Z" transform="translate(-40 -367)" fill="none" stroke="#517494" stroke-width="1"/>
    </g>
    <path id="Icon_awesome-plus" data-name="Icon awesome-plus" d="M13.526,8.209H8.844V3.333A1.063,1.063,0,0,0,7.8,2.25H6.763a1.063,1.063,0,0,0-1.04,1.083V8.209H1.04A1.063,1.063,0,0,0,0,9.292v1.083a1.063,1.063,0,0,0,1.04,1.083H5.723v4.875a1.063,1.063,0,0,0,1.04,1.083H7.8a1.063,1.063,0,0,0,1.04-1.083V11.459h4.682a1.063,1.063,0,0,0,1.04-1.083V9.292A1.063,1.063,0,0,0,13.526,8.209Z" transform="translate(13.933 -2.25)" fill="#517494" stroke="#fff" stroke-width="1"/>
  </g>
</svg>
