<svg id="Component_43_95" data-name="Component 43 – 95" xmlns="http://www.w3.org/2000/svg" width="36.222" height="33.134" viewBox="0 0 36.222 33.134">
  <g id="Group_4157" data-name="Group 4157">
    <path id="Icon_ionic-ios-arrow-back" data-name="Icon ionic-ios-arrow-back" d="M16.962,22.757,29.5,10.229a2.368,2.368,0,0,0-3.354-3.344L11.94,21.08a2.363,2.363,0,0,0-.069,3.265L26.137,38.638a2.368,2.368,0,1,0,3.354-3.344Z" transform="translate(6.025 -6.194)" fill="#517494"/>
    <path id="Icon_ionic-ios-arrow-back-2" data-name="Icon ionic-ios-arrow-back" d="M16.962,22.757,29.5,10.229a2.368,2.368,0,0,0-3.354-3.344L11.94,21.08a2.363,2.363,0,0,0-.069,3.265L26.137,38.638a2.368,2.368,0,1,0,3.354-3.344Z" transform="translate(-11.251 -6.194)" fill="#517494"/>
  </g>
</svg>
