<svg xmlns="http://www.w3.org/2000/svg" width="44.5" height="29.727" viewBox="0 0 44.5 29.727">
  <g id="Component_14_16" data-name="Component 14 – 16" transform="translate(0.5 0.5)">
    <g id="Shoping_Icon" data-name="Shoping Icon" transform="translate(0 6.155)">
      <path id="Shoping_Icon-2" data-name="Shoping Icon" d="M47.034,367H42.257A2.089,2.089,0,0,0,40,369.257v1.128a2.089,2.089,0,0,0,2.257,2.257h.187l6.87,16.581a.565.565,0,0,0,.521.348H69.664a.565.565,0,0,0,.521-.348l6.87-16.581h.187a2.089,2.089,0,0,0,2.257-2.257v-1.128A2.089,2.089,0,0,0,77.243,367H72.466m-1.357,0H48.391m11.923,14.108H65.7l-1.459,7.335h-3.93Zm-1.129,7.335h-3.93L53.8,381.108h5.389Zm1.129-8.464v-7.336h7.074l-1.46,7.336Zm-1.129,0H53.572l-1.46-7.336h7.074Zm-8.225-7.336,1.46,7.336H46.706l-3.04-7.336Zm-3.787,8.465h5.472l1.46,7.335H50.212Zm22.114,7.335H65.4l1.46-7.335h5.472Zm3.506-8.464H67.079l1.46-7.336h7.295Zm5.577-9.593a.981.981,0,0,1-1.129,1.129H42.257a.981.981,0,0,1-1.129-1.129v-1.128a.981.981,0,0,1,1.129-1.129H77.243a.981.981,0,0,1,1.129,1.129Z" transform="translate(-40 -367)" fill="none" stroke="#517494" stroke-width="1"/>
    </g>
    <path id="Icon_awesome-plus" data-name="Icon awesome-plus" d="M15.554,9.1H10.17V3.5a1.222,1.222,0,0,0-1.2-1.246h-1.2A1.222,1.222,0,0,0,6.58,3.5V9.1H1.2A1.222,1.222,0,0,0,0,10.348v1.246a1.222,1.222,0,0,0,1.2,1.246H6.58v5.606a1.222,1.222,0,0,0,1.2,1.246h1.2a1.222,1.222,0,0,0,1.2-1.246V12.839h5.384a1.222,1.222,0,0,0,1.2-1.246V10.348A1.222,1.222,0,0,0,15.554,9.1Z" transform="translate(26.75 -2.25)" fill="#517494" stroke="#fff" stroke-width="1"/>
  </g>
</svg>
