<svg xmlns="http://www.w3.org/2000/svg" width="52.68" height="35.582" viewBox="0 0 52.68 35.582">
  <g id="Group_6744" data-name="Group 6744" transform="translate(-22 -10.441)">
    <g id="Group_6709" data-name="Group 6709" transform="translate(23 11.441)">
      <g id="Incident">
        <g id="Group_6318" data-name="Group 6318">
          <g id="Component_63_25" data-name="Component 63 – 25">
            <path id="Union_4" data-name="Union 4" d="M19.354,29.1H2.765A2.747,2.747,0,0,1,0,26.369v-20A2.63,2.63,0,0,1,2.765,3.781l4.607-.143a3.687,3.687,0,0,1,7.374,0h4.608a2.746,2.746,0,0,1,2.765,2.728v8.113l5.166-8.508a2.753,2.753,0,0,1,4.676,0L43.545,25.049a2.662,2.662,0,0,1,.009,2.685A2.742,2.742,0,0,1,41.207,29.1ZM9.677,3.638A1.383,1.383,0,1,0,11.06,2.274,1.37,1.37,0,0,0,9.677,3.638Z" fill="none" stroke="#587fa3" stroke-linecap="round" stroke-linejoin="round" stroke-width="2"/>
            <g id="Group_6211" data-name="Group 6211" transform="translate(27.774 11.161)">
              <g id="Rectangle_3558" data-name="Rectangle 3558" fill="#587fa3" stroke="#587fa3" stroke-width="2">
                <rect width="3.52" height="9.857" rx="1.76" stroke="none"/>
                <rect x="1" y="1" width="1.52" height="7.857" rx="0.76" fill="none"/>
              </g>
              <g id="Ellipse_618" data-name="Ellipse 618" transform="translate(0 10.561)" fill="none" stroke="#587fa3" stroke-width="2">
                <circle cx="1.76" cy="1.76" r="1.76" stroke="none"/>
                <circle cx="1.76" cy="1.76" r="0.76" fill="none"/>
              </g>
            </g>
            <line id="Line_587" data-name="Line 587" x2="13.378" transform="translate(5.938 11.068)" fill="none" stroke="#587fa3" stroke-linecap="round" stroke-width="2"/>
            <line id="Line_588" data-name="Line 588" x2="13.378" transform="translate(5.938 17.066)" fill="none" stroke="#587fa3" stroke-linecap="round" stroke-width="2"/>
            <line id="Line_589" data-name="Line 589" x2="13.378" transform="translate(5.938 23.065)" fill="none" stroke="#587fa3" stroke-linecap="round" stroke-width="2"/>
          </g>
        </g>
      </g>
    </g>
    <g id="Icon_feather-plus" data-name="Icon feather-plus" transform="translate(60.646 31.989)">
      <path id="Path_5670" data-name="Path 5670" d="M18,7.5V20.034" transform="translate(-11.733 -7.5)" fill="none" stroke="#587fa3" stroke-linecap="round" stroke-linejoin="round" stroke-width="3"/>
      <path id="Path_5671" data-name="Path 5671" d="M7.5,18H20.034" transform="translate(-7.5 -11.733)" fill="none" stroke="#587fa3" stroke-linecap="round" stroke-linejoin="round" stroke-width="3"/>
    </g>
  </g>
</svg>
