<svg xmlns="http://www.w3.org/2000/svg" width="15.817" height="20.757" viewBox="0 0 15.817 20.757">
  <path id="Icon_awesome-file-csv" data-name="Icon awesome-file-csv" d="M8.643,5.248V0H.926A.924.924,0,0,0,0,.926v17.9a.924.924,0,0,0,.926.926H13.891a.924.924,0,0,0,.926-.926V6.174H9.57A.929.929,0,0,1,8.643,5.248ZM4.939,10.8a.309.309,0,0,1-.309.309H4.322a.617.617,0,0,0-.617.617v1.235a.617.617,0,0,0,.617.617H4.63a.309.309,0,0,1,.309.309v.617a.309.309,0,0,1-.309.309H4.322A1.852,1.852,0,0,1,2.47,12.965V11.73A1.852,1.852,0,0,1,4.322,9.878H4.63a.309.309,0,0,1,.309.309Zm1.708,4.013H6.174a.309.309,0,0,1-.309-.309v-.617a.309.309,0,0,1,.309-.309h.473c.23,0,.4-.135.4-.255a.2.2,0,0,0-.082-.148l-.845-.724a1.432,1.432,0,0,1-.514-1.086,1.57,1.57,0,0,1,1.636-1.49h.473a.309.309,0,0,1,.309.309V10.8a.309.309,0,0,1-.309.309H7.244c-.23,0-.4.135-.4.255a.2.2,0,0,0,.082.148l.845.724a1.432,1.432,0,0,1,.514,1.086,1.569,1.569,0,0,1-1.636,1.49Zm3.231-4.63v.8a4.206,4.206,0,0,0,.617,2.195,4.205,4.205,0,0,0,.617-2.195v-.8a.309.309,0,0,1,.309-.309h.617a.309.309,0,0,1,.309.309v.8a5.307,5.307,0,0,1-1.4,3.631.617.617,0,0,1-.9,0,5.307,5.307,0,0,1-1.4-3.631v-.8a.309.309,0,0,1,.309-.309H9.57A.309.309,0,0,1,9.878,10.187Zm4.669-6.135L10.77.27A.925.925,0,0,0,10.114,0H9.878V4.939h4.939V4.7A.923.923,0,0,0,14.547,4.052Z" transform="translate(0.5 0.5)" fill="none" stroke="#1b7692" stroke-width="1"/>
</svg>
