<svg xmlns="http://www.w3.org/2000/svg" width="15.582" height="17.808" viewBox="0 0 15.582 17.808">
  <path id="Icon_metro-files-empty" data-name="Icon metro-files-empty" d="M19.347,8.138A15.766,15.766,0,0,0,17.831,6.4,15.773,15.773,0,0,0,16.1,4.888a2.774,2.774,0,0,0-1.581-.734h-6.4A1.393,1.393,0,0,0,6.725,5.545v12.8a1.393,1.393,0,0,0,1.391,1.391H18.69a1.393,1.393,0,0,0,1.391-1.391V9.719a2.774,2.774,0,0,0-.734-1.581Zm-2.3-.947a15.179,15.179,0,0,1,1.262,1.415H15.629V5.929a15.168,15.168,0,0,1,1.415,1.262Zm1.924,11.154a.282.282,0,0,1-.278.278H8.116a.282.282,0,0,1-.278-.278V5.545a.282.282,0,0,1,.278-.278h6.4v3.9a.556.556,0,0,0,.557.557h3.9Zm-5.1-15.683a2.774,2.774,0,0,0-1.581-.734H5.89A1.393,1.393,0,0,0,4.5,3.319v12.8a1.394,1.394,0,0,0,1.113,1.363V3.319a.282.282,0,0,1,.278-.278h8.467c-.168-.138-.331-.265-.486-.379Z" transform="translate(-4.499 -1.928)" fill="#1b7692"/>
</svg>
