<svg id="ghg" xmlns="http://www.w3.org/2000/svg" width="19.544" height="16.5" viewBox="0 0 19.544 16.5">
  <path id="Path_361" data-name="Path 361" d="M15.754,13.927a.229.229,0,0,0-.336-.026L11.41,18.4c-.109.107-.026.273.14.284l7.026.516c.166.011.279-.14.2-.262Z" transform="translate(-5.709 -7.767)" fill="red"/>
  <path id="Path_362" data-name="Path 362" d="M24.921,18.491a.229.229,0,0,0-.336-.026l-1.082.925a.152.152,0,0,0-.022.2l1.108,1.823a.21.21,0,0,0,.161.085l1.958.144c.166.011.279-.14.2-.262Z" transform="translate(-10.3 -9.94)" fill="red"/>
  <path id="Path_363" data-name="Path 363" d="M25.941,14.195a1.008,1.008,0,0,0,1-.707.93.93,0,0,0-1.034-1.035,1.008,1.008,0,0,0-1,.707A.93.93,0,0,0,25.941,14.195Z" transform="translate(-10.845 -7.106)" fill="red"/>
  <path id="Path_364" data-name="Path 364" d="M20.708,5.834l-2.87-.21-.266-2.468a1.139,1.139,0,0,0-1.287-.9L3.327,3.24A1.064,1.064,0,0,0,2.254,4.323L3.423,15.245a1.139,1.139,0,0,0,1.287.9l.685-.052-.065.615a1.062,1.062,0,0,0,1.077,1.079l12.967.954a1.143,1.143,0,0,0,1.282-.906L21.79,6.913A1.071,1.071,0,0,0,20.708,5.834ZM4.675,12.147a.291.291,0,0,1-.323-.225L3.567,4.555a.264.264,0,0,1,.266-.269l12.177-.925a.291.291,0,0,1,.323.225l.209,1.945-8.8-.652a1.143,1.143,0,0,0-1.282.906l-.65,6.273Zm15.8-5-.763,7.367a.286.286,0,0,1-.318.228l-.811-.059L7.209,13.853a.268.268,0,0,1-.27-.269L7.1,11.967l.6-5.75a.286.286,0,0,1,.318-.228l8.636.637,1.3.1,2.251.166A.257.257,0,0,1,20.472,7.152Z" transform="translate(-2.25 -2.249)" fill="red"/>
</svg>
