<svg xmlns="http://www.w3.org/2000/svg" width="43.061" height="39.391" viewBox="0 0 43.061 39.391">
  <g id="Group_4159" data-name="Group 4159" transform="translate(-638 -408)">
    <g id="Component_43_94" data-name="Component 43 – 94" transform="translate(638 408)">
      <g id="Group_4157" data-name="Group 4157">
        <path id="Icon_ionic-ios-arrow-back" data-name="Icon ionic-ios-arrow-back" d="M18.04,25.884,32.947,10.991A2.815,2.815,0,1,0,28.96,7.016L12.071,23.891a2.809,2.809,0,0,0-.082,3.882L28.948,44.764a2.815,2.815,0,0,0,3.988-3.975Z" transform="translate(9.287 -6.194)" fill="#ee9105"/>
        <path id="Icon_ionic-ios-arrow-back-2" data-name="Icon ionic-ios-arrow-back" d="M18.04,25.884,32.947,10.991A2.815,2.815,0,1,0,28.96,7.016L12.071,23.891a2.809,2.809,0,0,0-.082,3.882L28.948,44.764a2.815,2.815,0,0,0,3.988-3.975Z" transform="translate(-11.251 -6.194)" fill="#ee9105"/>
      </g>
    </g>
  </g>
</svg>
