<svg xmlns="http://www.w3.org/2000/svg" width="30" height="29.928" viewBox="0 0 30 29.928">
  <g id="Group_5604" data-name="Group 5604" transform="translate(-233.607 -49.813)">
    <path id="Path_5332" data-name="Path 5332" d="M285.507,50.383a.423.423,0,0,1,.369-.5c.5-.05.993-.075,1.487-.075s.99.025,1.482.073a.423.423,0,0,1,.37.5l-.371,2.117a.425.425,0,0,1-.459.348c-.34-.029-.682-.044-1.022-.044s-.684.015-1.025.044a.425.425,0,0,1-.459-.347Z" transform="translate(-38.763 0)" fill="#006837"/>
    <path id="Path_5333" data-name="Path 5333" d="M262.974,53.914a14.838,14.838,0,0,1,2.718-1.2.423.423,0,0,1,.538.3l.521,2.085a.425.425,0,0,1-.279.5,11.876,11.876,0,0,0-1.871.83.426.426,0,0,1-.561-.13l-1.2-1.784A.423.423,0,0,1,262.974,53.914Z" transform="translate(-21.78 -2.148)" fill="#06753d"/>
    <path id="Path_5334" data-name="Path 5334" d="M244.955,67a15.018,15.018,0,0,1,2-2.2.423.423,0,0,1,.614.058l1.326,1.7a.425.425,0,0,1-.051.575,11.925,11.925,0,0,0-1.379,1.52.425.425,0,0,1-.565.108l-1.829-1.144A.423.423,0,0,1,244.955,67Z" transform="translate(-8.416 -11.113)" fill="#009245"/>
    <path id="Path_5335" data-name="Path 5335" d="M234.934,87.109a14.8,14.8,0,0,1,.937-2.839.423.423,0,0,1,.584-.2l1.906,1.011a.425.425,0,0,1,.187.547,11.854,11.854,0,0,0-.645,1.957.425.425,0,0,1-.472.328l-2.141-.3A.423.423,0,0,1,234.934,87.109Z" transform="translate(-0.984 -25.554)" fill="#009245"/>
    <path id="Path_5336" data-name="Path 5336" d="M233.906,110.846a14.78,14.78,0,0,1-.3-2.975.423.423,0,0,1,.454-.417l2.152.149a.425.425,0,0,1,.393.423,11.877,11.877,0,0,0,.207,2.05.426.426,0,0,1-.3.492l-2.078.595A.423.423,0,0,1,233.906,110.846Z" transform="translate(0 -43.056)" fill="#39b54a"/>
    <path id="Path_5337" data-name="Path 5337" d="M240.043,131.906a14.927,14.927,0,0,1-1.5-2.615.423.423,0,0,1,.245-.566l2.04-.743a.425.425,0,0,1,.531.226,11.921,11.921,0,0,0,1.032,1.8.425.425,0,0,1-.072.571l-1.666,1.4A.423.423,0,0,1,240.043,131.906Z" transform="translate(-3.663 -58.371)" fill="#39b54a"/>
    <path id="Path_5338" data-name="Path 5338" d="M255.245,148.391a14.886,14.886,0,0,1-2.434-1.783.423.423,0,0,1-.006-.616l1.563-1.511a.425.425,0,0,1,.577-.01,11.891,11.891,0,0,0,1.68,1.23.425.425,0,0,1,.167.551l-.956,1.957A.423.423,0,0,1,255.245,148.391Z" transform="translate(-14.243 -70.625)" fill="#39b54a"/>
    <path id="Path_5339" data-name="Path 5339" d="M276.789,157.826a14.767,14.767,0,0,1-2.96-.628.423.423,0,0,1-.257-.561l.814-2.021a.425.425,0,0,1,.523-.244,11.843,11.843,0,0,0,2.042.434.425.425,0,0,1,.378.435l-.077,2.177A.423.423,0,0,1,276.789,157.826Z" transform="translate(-29.83 -78.088)" fill="#39b54a"/>
    <path id="Path_5340" data-name="Path 5340" d="M297.584,154.806a11.867,11.867,0,0,0,2.042-.434.425.425,0,0,1,.523.244l.815,2.021a.423.423,0,0,1-.257.561,14.742,14.742,0,0,1-2.96.629.423.423,0,0,1-.464-.408l-.077-2.177A.425.425,0,0,1,297.584,154.806Z" transform="translate(-47.507 -78.088)" fill="#75ef80"/>
    <path id="Path_5341" data-name="Path 5341" d="M316.809,145.7a11.894,11.894,0,0,0,1.682-1.23.425.425,0,0,1,.577.009l1.562,1.511a.423.423,0,0,1-.006.617,14.936,14.936,0,0,1-2.435,1.784.423.423,0,0,1-.591-.183l-.956-1.956A.425.425,0,0,1,316.809,145.7Z" transform="translate(-61.993 -70.625)" fill="#75ef80"/>
    <path id="Path_5342" data-name="Path 5342" d="M331.623,130.02a11.914,11.914,0,0,0,1.034-1.8.425.425,0,0,1,.531-.226l2.038.743a.423.423,0,0,1,.245.566,14.972,14.972,0,0,1-1.5,2.615.423.423,0,0,1-.615.074l-1.666-1.4A.425.425,0,0,1,331.623,130.02Z" transform="translate(-73.157 -58.377)" fill="#75ef80"/>
    <path id="Path_5343" data-name="Path 5343" d="M339.76,110.566a.426.426,0,0,1-.3-.492,12.026,12.026,0,0,0,.206-2.221c0-.078,0-.156,0-.234l2.553-.176a.423.423,0,0,1,.453.42v0a15.117,15.117,0,0,1-.3,2.977.423.423,0,0,1-.532.318Z" transform="translate(-79.065 -43.047)" fill="#75ef80"/>
    <path id="Path_5344" data-name="Path 5344" d="M337.014,87.587a11.868,11.868,0,0,0-.645-1.957.425.425,0,0,1,.188-.547l1.9-1.011a.423.423,0,0,1,.584.2,14.73,14.73,0,0,1,.938,2.84.423.423,0,0,1-.357.506l-2.141.3A.425.425,0,0,1,337.014,87.587Z" transform="translate(-76.733 -25.554)" fill="#75ef80"/>
    <path id="Path_5345" data-name="Path 5345" d="M326.107,68.644a11.925,11.925,0,0,0-1.381-1.522.425.425,0,0,1-.051-.575L326,64.854a.423.423,0,0,1,.614-.058,14.968,14.968,0,0,1,2,2.2.423.423,0,0,1-.12.608l-1.828,1.144A.425.425,0,0,1,326.107,68.644Z" transform="translate(-67.96 -11.112)" fill="#bbffbe"/>
    <path id="Path_5346" data-name="Path 5346" d="M309.308,56.43a11.869,11.869,0,0,0-1.873-.83.425.425,0,0,1-.279-.5l.521-2.085a.423.423,0,0,1,.538-.3,14.734,14.734,0,0,1,2.72,1.2.423.423,0,0,1,.136.6l-1.2,1.785A.426.426,0,0,1,309.308,56.43Z" transform="translate(-54.93 -2.147)" fill="#bbffbe"/>
  </g>
</svg>
