<svg xmlns="http://www.w3.org/2000/svg" width="59.982" height="59.982" viewBox="0 0 59.982 59.982">
  <g id="Group_5663" data-name="Group 5663" transform="translate(-67.852 -447.5)">
    <g id="Icon_feather-image" data-name="Icon feather-image" transform="translate(64.852 444.5)">
      <path id="Path_5354" data-name="Path 5354" d="M10.762,4.5H54.6a6.262,6.262,0,0,1,6.262,6.262V54.6A6.262,6.262,0,0,1,54.6,60.861H10.762A6.262,6.262,0,0,1,4.5,54.6V10.762A6.262,6.262,0,0,1,10.762,4.5Z" transform="translate(0 0)" fill="none" stroke="#517494" stroke-linecap="round" stroke-linejoin="round" stroke-width="3"/>
      <path id="Path_5355" data-name="Path 5355" d="M19.894,15.2a4.7,4.7,0,1,1-4.7-4.7A4.7,4.7,0,0,1,19.894,15.2Z" transform="translate(6.525 6.525)" fill="none" stroke="#517494" stroke-linecap="round" stroke-linejoin="round" stroke-width="3"/>
      <path id="Path_5356" data-name="Path 5356" d="M57.6,30.656,41.943,15,7.5,49.443" transform="translate(3.262 11.418)" fill="none" stroke="#517494" stroke-linecap="round" stroke-linejoin="round" stroke-width="3"/>
    </g>
  </g>
</svg>
