<svg xmlns="http://www.w3.org/2000/svg" xmlns:xlink="http://www.w3.org/1999/xlink" width="122" height="122" viewBox="0 0 122 122">
  <defs>
    <filter id="Ellipse_581" x="0" y="0" width="122" height="122" filterUnits="userSpaceOnUse">
      <feOffset dy="3" input="SourceAlpha"/>
      <feGaussianBlur stdDeviation="3" result="blur"/>
      <feFlood flood-opacity="0.161"/>
      <feComposite operator="in" in2="blur"/>
      <feComposite in="SourceGraphic"/>
    </filter>
  </defs>
  <g id="Group_5732" data-name="Group 5732" transform="translate(-749.847 -385)">
    <g transform="matrix(1, 0, 0, 1, 749.85, 385)" filter="url(#Ellipse_581)">
      <circle id="Ellipse_581-2" data-name="Ellipse 581" cx="52" cy="52" r="52" transform="translate(9 6)" fill="#fff"/>
    </g>
    <g id="Icon_ionic-ios-images" data-name="Icon ionic-ios-images" transform="translate(776.975 408.147)">
      <path id="Path_5324" data-name="Path 5324" d="M27.552,14.22a.762.762,0,0,0-1.238-.113L11.542,33.75a.752.752,0,0,0,.514,1.238l25.9,2.25a.765.765,0,0,0,.723-1.141Z" transform="translate(9.468 12.66)" fill="#0791ee"/>
      <path id="Path_5325" data-name="Path 5325" d="M28.86,18.783a.762.762,0,0,0-1.238-.112L23.636,22.7a.752.752,0,0,0-.08.868l4.083,7.957a.749.749,0,0,0,.595.37l7.217.627a.765.765,0,0,0,.723-1.141Z" transform="translate(25.022 18.529)" fill="#0791ee"/>
      <path id="Path_5326" data-name="Path 5326" d="M28.767,20.056a3.8,3.8,0,1,0-3.81-4.517A3.831,3.831,0,0,0,28.767,20.056Z" transform="translate(26.867 10.875)" fill="#0791ee"/>
      <path id="Path_5327" data-name="Path 5327" d="M70.277,17.892,59.7,16.976,58.72,6.206a4.342,4.342,0,0,0-4.742-3.938L6.221,6.576A4.36,4.36,0,0,0,2.266,11.3l4.308,47.66A4.342,4.342,0,0,0,11.316,62.9l2.524-.225L13.6,65.36a4.347,4.347,0,0,0,3.97,4.71l47.789,4.163a4.36,4.36,0,0,0,4.726-3.954L74.263,22.6A4.38,4.38,0,0,0,70.277,17.892ZM11.188,45.444A1.107,1.107,0,0,1,10,44.463L7.1,12.314a1.082,1.082,0,0,1,.981-1.173l44.88-4.035a1.107,1.107,0,0,1,1.19.981l.772,8.487L22.5,13.729a4.36,4.36,0,0,0-4.726,3.954l-2.4,27.375Zm58.221-21.8L66.6,55.8a1.094,1.094,0,0,1-1.173,1l-2.99-.257L20.527,52.886a1.094,1.094,0,0,1-1-1.173l.611-7.057,2.2-25.092a1.094,1.094,0,0,1,1.173-1l31.827,2.781,4.774.418,8.294.723A1.05,1.05,0,0,1,69.409,23.647Z" transform="translate(-2.25 -2.249)" fill="#0791ee"/>
    </g>
  </g>
</svg>
