<svg xmlns="http://www.w3.org/2000/svg" xmlns:xlink="http://www.w3.org/1999/xlink" width="43" height="43" viewBox="0 0 43 43">
  <defs>
    <filter id="Ellipse_283" x="0" y="0" width="43" height="43" filterUnits="userSpaceOnUse">
      <feOffset dy="3" input="SourceAlpha"/>
      <feGaussianBlur stdDeviation="3" result="blur"/>
      <feFlood flood-opacity="0.161"/>
      <feComposite operator="in" in2="blur"/>
      <feComposite in="SourceGraphic"/>
    </filter>
  </defs>
  <g id="Group_2264" data-name="Group 2264" transform="translate(9 5.839)">
    <g transform="matrix(1, 0, 0, 1, -9, -5.84)" filter="url(#Ellipse_283)">
      <circle id="Ellipse_283-2" data-name="Ellipse 283" cx="12.5" cy="12.5" r="12.5" transform="translate(9 6)" fill="#fff"/>
    </g>
    <path id="Icon_feather-twitter" data-name="Icon feather-twitter" d="M13.652,4.49a6.021,6.021,0,0,1-1.734.845A2.475,2.475,0,0,0,7.576,6.993v.552A5.888,5.888,0,0,1,2.6,5.043S.4,10.014,5.367,12.223a6.43,6.43,0,0,1-3.867,1.1c4.971,2.762,11.047,0,11.047-6.352a2.485,2.485,0,0,0-.044-.458A4.264,4.264,0,0,0,13.652,4.49Z" transform="translate(5.005 4.384)" fill="none" stroke="#00a2ff" stroke-linecap="round" stroke-linejoin="round" stroke-width="2"/>
  </g>
</svg>
