<svg xmlns="http://www.w3.org/2000/svg" width="62.202" height="62.202" viewBox="0 0 62.202 62.202">
  <path id="Icon_material-broken_image" data-name="Icon material-broken_image" d="M63.7,11.078V32.753l-9.867-9.9L40.679,36.042,27.523,22.886,14.367,36.042,4.5,26.142V11.078A6.6,6.6,0,0,1,11.078,4.5H57.124A6.6,6.6,0,0,1,63.7,11.078ZM53.835,32.193l9.867,9.9V57.124A6.6,6.6,0,0,1,57.124,63.7H11.078A6.6,6.6,0,0,1,4.5,57.124V35.482l9.867,9.834L27.523,32.161,40.679,45.317Z" transform="translate(-3 -3)" fill="none" stroke="#e84f4f" stroke-width="3"/>
</svg>
