<svg xmlns="http://www.w3.org/2000/svg" width="15.456" height="15.457" viewBox="0 0 15.456 15.457">
  <path id="Icon_awesome-phone-alt" data-name="Icon awesome-phone-alt" d="M14.032,10.207l-3.16-1.354a.677.677,0,0,0-.79.195l-1.4,1.71a10.457,10.457,0,0,1-5-5l1.71-1.4a.675.675,0,0,0,.195-.79L4.235.41A.682.682,0,0,0,3.459.017L.525.695A.677.677,0,0,0,0,1.354a13.089,13.089,0,0,0,13.09,13.09.677.677,0,0,0,.66-.525l.677-2.934A.685.685,0,0,0,14.032,10.207Z" transform="translate(0.5 0.512)" fill="none" stroke="#517494" stroke-width="1"/>
</svg>
