<svg xmlns="http://www.w3.org/2000/svg" width="24.406" height="24.396" viewBox="0 0 24.406 24.396">
  <g id="Icon_ionic-ios-images" data-name="Icon ionic-ios-images" transform="translate(-2.25 -2.249)">
    <path id="Path_5375" data-name="Path 5375" d="M16.847,13.969a.258.258,0,0,0-.419-.038l-5.005,6.656a.255.255,0,0,0,.174.419l8.774.763a.259.259,0,0,0,.245-.387Z" transform="translate(-2.053 -2.613)" fill="#1d364b"/>
    <path id="Path_5376" data-name="Path 5376" d="M25.286,18.532a.258.258,0,0,0-.419-.038l-1.351,1.367a.255.255,0,0,0-.027.294l1.383,2.7a.254.254,0,0,0,.2.125l2.446.212a.259.259,0,0,0,.245-.387Z" transform="translate(-4.779 -3.641)" fill="#1d364b"/>
    <path id="Path_5377" data-name="Path 5377" d="M26.2,15.029a1.288,1.288,0,1,0-1.291-1.53A1.3,1.3,0,0,0,26.2,15.029Z" transform="translate(-5.102 -2.3)" fill="#1d364b"/>
    <path id="Path_5378" data-name="Path 5378" d="M25.3,7.549l-3.584-.31L21.384,3.59a1.471,1.471,0,0,0-1.607-1.334L3.6,3.715a1.477,1.477,0,0,0-1.34,1.6l1.46,16.149A1.471,1.471,0,0,0,5.322,22.8l.855-.076-.082.91a1.473,1.473,0,0,0,1.345,1.6l16.193,1.411a1.477,1.477,0,0,0,1.6-1.34L26.651,9.145A1.484,1.484,0,0,0,25.3,7.549ZM5.278,16.885a.375.375,0,0,1-.4-.332L3.895,5.659a.367.367,0,0,1,.332-.4L19.434,3.895a.375.375,0,0,1,.4.332L20.1,7.1,9.113,6.139a1.477,1.477,0,0,0-1.6,1.34L6.7,16.754ZM25.006,9.5l-.953,10.893a.371.371,0,0,1-.4.338l-1.013-.087-14.2-1.236a.371.371,0,0,1-.338-.4l.207-2.391.746-8.5a.371.371,0,0,1,.4-.338L20.24,8.72l1.618.142,2.81.245A.356.356,0,0,1,25.006,9.5Z" fill="#1d364b"/>
  </g>
</svg>
