<svg xmlns="http://www.w3.org/2000/svg" width="97.149" height="97.161" viewBox="0 0 97.149 97.161">
  <path id="Icon_awesome-check-double" data-name="Icon awesome-check-double" d="M95.824,33.169l-7.514-7.514a4.535,4.535,0,0,0-6.432,0L36.436,71.1,15.3,49.942a4.535,4.535,0,0,0-6.432,0L1.334,57.475a4.558,4.558,0,0,0,0,6.451l31.876,31.9a4.535,4.535,0,0,0,6.432,0l56.163-56.2A4.575,4.575,0,0,0,95.824,33.169ZM34.292,53.282a3.012,3.012,0,0,0,4.288,0l39.466-39.5a3.046,3.046,0,0,0,0-4.288L69.47.895a3.012,3.012,0,0,0-4.288,0L36.436,29.64,25.924,19.11a3.012,3.012,0,0,0-4.288,0l-8.6,8.6a3.046,3.046,0,0,0,0,4.288Z" transform="translate(0.004 0.002)" fill="#0ec852"/>
</svg>
