<svg xmlns="http://www.w3.org/2000/svg" width="18.25" height="18.25" viewBox="0 0 18.25 18.25">
  <g id="Icon_feather-image" data-name="Icon feather-image" transform="translate(-4 -4)">
    <path id="Path_5665" data-name="Path 5665" d="M6.394,4.5H19.649a1.894,1.894,0,0,1,1.894,1.894V19.649a1.894,1.894,0,0,1-1.894,1.894H6.394A1.894,1.894,0,0,1,4.5,19.649V6.394A1.894,1.894,0,0,1,6.394,4.5Z" fill="none" stroke="#000" stroke-linecap="round" stroke-linejoin="round" stroke-width="1"/>
    <path id="Path_5666" data-name="Path 5666" d="M13.34,11.92a1.42,1.42,0,1,1-1.42-1.42A1.42,1.42,0,0,1,13.34,11.92Z" transform="translate(-2.213 -2.213)" fill="none" stroke="#000" stroke-linecap="round" stroke-linejoin="round" stroke-width="1"/>
    <path id="Path_5667" data-name="Path 5667" d="M22.649,19.734,17.915,15,7.5,25.415" transform="translate(-1.106 -3.872)" fill="none" stroke="#000" stroke-linecap="round" stroke-linejoin="round" stroke-width="1"/>
  </g>
</svg>
