<svg xmlns="http://www.w3.org/2000/svg" width="20.553" height="20.553" viewBox="0 0 20.553 20.553">
  <g id="image_icon" data-name="image icon" transform="translate(-3.5 -3.5)">
    <path id="Path_342" data-name="Path 342" d="M6.515,4.5H20.623a2.015,2.015,0,0,1,2.015,2.015V20.623a2.015,2.015,0,0,1-2.015,2.015H6.515A2.015,2.015,0,0,1,4.5,20.623V6.515A2.015,2.015,0,0,1,6.515,4.5Z" transform="translate(0 0)" fill="none" stroke="#517494" stroke-linecap="round" stroke-linejoin="round" stroke-width="2"/>
    <path id="Path_343" data-name="Path 343" d="M13.523,12.012A1.512,1.512,0,1,1,12.012,10.5,1.512,1.512,0,0,1,13.523,12.012Z" transform="translate(-1.969 -1.969)" fill="none" stroke="#517494" stroke-linecap="round" stroke-linejoin="round" stroke-width="2"/>
    <path id="Path_344" data-name="Path 344" d="M23.623,20.039,18.585,15,7.5,26.085" transform="translate(-0.985 -3.446)" fill="none" stroke="#517494" stroke-linecap="round" stroke-linejoin="round" stroke-width="2"/>
  </g>
</svg>
