<svg xmlns="http://www.w3.org/2000/svg" width="142.413" height="129.884" viewBox="0 0 142.413 129.884">
  <g id="large_image-icon" data-name="large image-icon" transform="translate(2 2)" opacity="0.31">
    <path id="Path_342" data-name="Path 342" d="M19.787,4.5H126.8c8.443,0,15.287,6.221,15.287,13.9v97.266c0,7.674-6.844,13.9-15.287,13.9H19.787c-8.443,0-15.287-6.221-15.287-13.9V18.4C4.5,10.721,11.344,4.5,19.787,4.5Z" transform="translate(-4.5 -4.5)" fill="none" stroke="#517494" stroke-linecap="round" stroke-linejoin="round" stroke-width="4"/>
    <path id="Path_343" data-name="Path 343" d="M33.431,21.965A11.465,11.465,0,1,1,21.965,10.5,11.465,11.465,0,0,1,33.431,21.965Z" transform="translate(20.074 16.734)" fill="none" stroke="#517494" stroke-linecap="round" stroke-linejoin="round" stroke-width="4"/>
    <path id="Path_344" data-name="Path 344" d="M129.8,53.218,91.579,15,7.5,99.079" transform="translate(7.788 25.976)" fill="none" stroke="#517494" stroke-linecap="round" stroke-linejoin="round" stroke-width="4"/>
  </g>
</svg>
