<svg xmlns="http://www.w3.org/2000/svg" width="20.998" height="24.5" viewBox="0 0 20.998 24.5">
  <path id="Icon_ionic-ios-refresh" data-name="Icon ionic-ios-refresh" d="M24.68,16.294a.816.816,0,0,0-.815.744,8.879,8.879,0,1,1-9.078-9.565.214.214,0,0,1,.224.219v2.751a.877.877,0,0,0,1.345.738L21.618,7.5a.874.874,0,0,0,0-1.482L16.362,2.387a.877.877,0,0,0-1.345.738v2.5a.215.215,0,0,1-.213.219A10.456,10.456,0,1,0,25.495,17.175a.813.813,0,0,0-.815-.88Z" transform="translate(-4.5 -2.251)" fill="#1b7692"/>
</svg>
