<svg xmlns="http://www.w3.org/2000/svg" xmlns:xlink="http://www.w3.org/1999/xlink" width="54.924" height="54.924" viewBox="0 0 54.924 54.924">
  <defs>
    <filter id="Ellipse_284" x="0" y="0" width="54.924" height="54.924" filterUnits="userSpaceOnUse">
      <feOffset dy="3" input="SourceAlpha"/>
      <feGaussianBlur stdDeviation="3" result="blur"/>
      <feFlood flood-opacity="0.161"/>
      <feComposite operator="in" in2="blur"/>
      <feComposite in="SourceGraphic"/>
    </filter>
  </defs>
  <g id="Group_2297" data-name="Group 2297" transform="translate(-575.263 -1061.159)">
    <g transform="matrix(1, 0, 0, 1, 575.26, 1061.16)" filter="url(#Ellipse_284)">
      <ellipse id="Ellipse_284-2" data-name="Ellipse 284" cx="18.462" cy="18.462" rx="18.462" ry="18.462" transform="translate(9 6)" fill="#fff"/>
    </g>
    <path id="Icon_awesome-linkedin-in" data-name="Icon awesome-linkedin-in" d="M3.687,16.472H.272v-11H3.687ZM1.978,3.975a1.987,1.987,0,1,1,1.978-2A1.994,1.994,0,0,1,1.978,3.975Zm14.49,12.5H13.06V11.119c0-1.276-.026-2.912-1.775-2.912-1.775,0-2.048,1.386-2.048,2.82v5.445H5.826v-11H9.1v1.5h.048A3.588,3.588,0,0,1,12.38,5.2c3.456,0,4.091,2.276,4.091,5.232v6.041Z" transform="translate(594.959 1076.344)" fill="#0668b2"/>
  </g>
</svg>
