<svg xmlns="http://www.w3.org/2000/svg" width="35" height="35" viewBox="0 0 35 35">
  <g id="Group_2290" data-name="Group 2290" transform="translate(-374 -401)">
    <g id="Group_2271" data-name="Group 2271" transform="translate(8 22)">
      <g id="Path_418" data-name="Path 418" transform="translate(366 379)" fill="#fff">
        <path d="M 17.5 34.5 C 12.95913982391357 34.5 8.690059661865234 32.731689453125 5.479189872741699 29.52080917358398 C 2.268310070037842 26.30994033813477 0.5 22.04085922241211 0.5 17.5 C 0.5 12.95913982391357 2.268310070037842 8.690059661865234 5.479189872741699 5.479189872741699 C 8.690059661865234 2.268310070037842 12.95913982391357 0.5 17.5 0.5 C 22.04085922241211 0.5 26.30994033813477 2.268310070037842 29.52080917358398 5.479189872741699 C 32.731689453125 8.690059661865234 34.5 12.95913982391357 34.5 17.5 C 34.5 22.04085922241211 32.731689453125 26.30994033813477 29.52080917358398 29.52080917358398 C 26.30994033813477 32.731689453125 22.04085922241211 34.5 17.5 34.5 Z" stroke="none"/>
        <path d="M 17.5 1 C 13.09268951416016 1 8.949180603027344 2.716300964355469 5.832740783691406 5.832740783691406 C 2.716300964355469 8.949180603027344 1 13.09268951416016 1 17.5 C 1 21.90731048583984 2.716300964355469 26.05081939697266 5.832740783691406 29.16725921630859 C 8.949180603027344 32.28369903564453 13.09268951416016 34 17.5 34 C 21.90731048583984 34 26.05081939697266 32.28369903564453 29.16725921630859 29.16725921630859 C 32.28369903564453 26.05081939697266 34 21.90731048583984 34 17.5 C 34 13.09268951416016 32.28369903564453 8.949180603027344 29.16725921630859 5.832740783691406 C 26.05081939697266 2.716300964355469 21.90731048583984 1 17.5 1 M 17.5 0 C 27.16497993469238 0 35 7.835020065307617 35 17.5 C 35 27.16497993469238 27.16497993469238 35 17.5 35 C 7.835020065307617 35 0 27.16497993469238 0 17.5 C 0 7.835020065307617 7.835020065307617 0 17.5 0 Z" stroke="none" fill="#517494"/>
      </g>
    </g>
    <g id="Group_2275" data-name="Group 2275" transform="translate(7 18.307)">
      <text id="XS" transform="translate(371 408.693)" fill="#517494" font-size="21" font-family="Poppins-SemiBold, Poppins" font-weight="600"><tspan x="0" y="0">XS</tspan></text>
      <g id="Ellipse_290" data-name="Ellipse 290" transform="translate(374 397.693)" fill="none" stroke="#fff" stroke-width="5">
        <circle cx="4.5" cy="4.5" r="4.5" stroke="none"/>
        <circle cx="4.5" cy="4.5" r="2" fill="none"/>
      </g>
      <g id="Ellipse_289" data-name="Ellipse 289" transform="translate(372 395.693)" fill="none" stroke="#8da2b5" stroke-width="3">
        <circle cx="6" cy="6" r="6" stroke="none"/>
        <circle cx="6" cy="6" r="4.5" fill="none"/>
      </g>
    </g>
  </g>
</svg>
