<svg xmlns="http://www.w3.org/2000/svg" width="38.628" height="28.61" viewBox="0 0 38.628 28.61">
  <g id="Component_9_49" data-name="Component 9 – 49" transform="translate(1.007 1.007)">
    <g id="Group_1770" data-name="Group 1770" transform="translate(15.621)">
      <g id="Group_1686" data-name="Group 1686" transform="translate(0)">
        <circle id="Ellipse_209" data-name="Ellipse 209" cx="11" cy="11" r="11" fill="none"/>
      </g>
    </g>
    <path id="Icon_awesome-box-open" data-name="Icon awesome-box-open" d="M23.056,15.55a2.587,2.587,0,0,1-2.242-1.389L17.331,7.831,13.854,14.16a2.6,2.6,0,0,1-2.248,1.4,2.289,2.289,0,0,1-.72-.113l-7.42-2.327V23.684a1.87,1.87,0,0,0,1.311,1.841l11.71,3.212a3.221,3.221,0,0,0,1.679,0l11.721-3.212A1.88,1.88,0,0,0,31.2,23.684V13.115l-7.42,2.322A2.289,2.289,0,0,1,23.056,15.55ZM34.571,8.888l-2.789-6.1a.869.869,0,0,0-.9-.528L17.331,4.15,22.3,13.181a.857.857,0,0,0,1,.433l10.719-3.355a1.006,1.006,0,0,0,.552-1.372Zm-31.69-6.1L.091,8.888a1,1,0,0,0,.547,1.366l10.719,3.355a.857.857,0,0,0,1-.433L17.331,4.15,3.78,2.256A.87.87,0,0,0,2.881,2.784Z" transform="translate(0.003 -2.247)" fill="none" stroke="#517494" stroke-width="2"/>
  </g>
</svg>
