<svg xmlns="http://www.w3.org/2000/svg" width="25.71" height="27.879" viewBox="0 0 25.71 27.879">
  <g id="Group_2648" data-name="Group 2648" transform="translate(-1292 -169.467)">
    <g id="Trolley" transform="translate(1292 169.467)">
      <path id="Path_364" data-name="Path 364" d="M715.633,127.251a1.975,1.975,0,1,1-1.979,1.979,1.974,1.974,0,0,1,1.979-1.979Z" transform="translate(-704.563 -103.321)" fill="#1b1c1c" fill-rule="evenodd"/>
      <path id="Path_365" data-name="Path 365" d="M718.835,126.183v2.168a.992.992,0,0,1-.989.989h0a.992.992,0,0,1-.989-.989v-2.168Z" transform="translate(-706.775 -102.583)" fill="#454a4d" fill-rule="evenodd"/>
      <path id="Path_366" data-name="Path 366" d="M719.209,132.4a.387.387,0,0,1,.388.388.38.38,0,0,1-.388.379.373.373,0,0,1-.379-.379.38.38,0,0,1,.379-.388Z" transform="translate(-708.139 -106.879)" fill="#bac8d3" fill-rule="evenodd"/>
      <path id="Path_367" data-name="Path 367" d="M751.762,127.251a1.975,1.975,0,1,1-1.979,1.979,1.979,1.979,0,0,1,1.979-1.979Z" transform="translate(-729.498 -103.321)" fill="#1b1c1c" fill-rule="evenodd"/>
      <path id="Path_368" data-name="Path 368" d="M754.964,126.183v2.168a.992.992,0,0,1-.989.989h0a.992.992,0,0,1-.989-.989v-2.168Z" transform="translate(-731.711 -102.583)" fill="#454a4d" fill-rule="evenodd"/>
      <path id="Path_369" data-name="Path 369" d="M755.32,132.4a.38.38,0,0,1,.379.388.373.373,0,0,1-.379.379.38.38,0,0,1-.388-.379.387.387,0,0,1,.388-.388Z" transform="translate(-733.057 -106.879)" fill="#bac8d3" fill-rule="evenodd"/>
      <path id="Path_370" data-name="Path 370" d="M716.358,109.186a.392.392,0,0,1,0,.783H710.4a1.928,1.928,0,0,0-1.929,1.929h0a1.915,1.915,0,0,0,1.929,1.929h15.318a.4.4,0,1,1,0,.791H710.4a2.73,2.73,0,0,1-2.721-2.721h0a2.73,2.73,0,0,1,2.721-2.712Z" transform="translate(-700.402 -91.497)" fill="#5b8087"/>
      <path id="Path_371" data-name="Path 371" d="M705.923,78.74l18.237.816a.405.405,0,0,1,.379.4h0v6.208a.409.409,0,0,1-.363.4l-16.143,2.333a.4.4,0,0,1-.453-.338l-.643-2.9c0-.025-.008-.041-.008-.066l-.684-3.075Zm17.817,1.6-2.7-.116.049,1.525,2.655-.05Zm-3.5-.157-2.374-.1.066,1.731,2.358-.049Zm-3.182-.14-2.77-.124.19,1.962,2.655-.057Zm-3.578-.157-3.034-.14.4,2.2,2.828-.058Zm-3.85-.173-3.215-.149.544,2.457,3.075-.058Zm-3.7-.973Zm17.817,7.082V84.651l-2.547.2.049,1.336Zm0-1.979V82.5l-2.622.058.049,1.492Zm-15.45,4.213,2.778-.4-.363-1.97-2.894.231Zm3.57-.511,2.325-.338-.173-1.789-2.5.2Zm3.117-.454,2.358-.346-.066-1.583-2.457.2Zm3.158-.462,2.308-.33-.049-1.385-2.325.181Zm-11.889-4.122-.725-3.273a.39.39,0,0,1,.3-.478.426.426,0,0,1,.1-.016Zm.891.313.5,2.292,2.927-.231-.387-2.119Zm3.85-.074.38,2.078,2.564-.206-.181-1.929Zm3.562-.066.181,1.879,2.506-.2-.074-1.731Zm3.413-.066.074,1.682,2.333-.181-.049-1.55Z" transform="translate(-698.903 -71.668)" fill="#7eadb5"/>
      <path id="Path_372" data-name="Path 372" d="M692.771,68.354a.381.381,0,0,1-.3.462.39.39,0,0,1-.47-.3l-1.088-4.938-4.881-.725a.392.392,0,0,1,.115-.775l5.145.758v.008a.376.376,0,0,1,.321.3Z" transform="translate(-685.269 -61.395)" fill="#7eadb5"/>
      <path id="Path_373" data-name="Path 373" d="M684.65,60.729l4.023.627-.223,1.377-4.015-.627Z" transform="translate(-684.394 -60.465)" fill="#9e2519" fill-rule="evenodd"/>
      <path id="Path_374" data-name="Path 374" d="M695.432,61.556l.676.107-.3,1.9-.668-.1Z" transform="translate(-691.788 -61.037)" fill="#710000" fill-rule="evenodd"/>
      <path id="Path_375" data-name="Path 375" d="M684.6,59.875l.676.1-.3,1.913-.676-.107Z" transform="translate(-684.302 -59.875)" fill="#710000" fill-rule="evenodd"/>
    </g>
  </g>
</svg>
