<svg xmlns="http://www.w3.org/2000/svg" width="71.976" height="41.853" viewBox="0 0 71.976 41.853">
  <g id="Group_2819" data-name="Group 2819" transform="translate(-97.949 -772.755)">
    <g id="Group_2818" data-name="Group 2818" transform="translate(98.699 774.062)">
      <g id="Shoping_Icon" data-name="Shoping Icon" transform="translate(0 16.147)">
        <path id="Shoping_Icon-2" data-name="Shoping Icon" d="M46.749,367H42.165A2.007,2.007,0,0,0,40,369.17v1.085a2.007,2.007,0,0,0,2.165,2.17h.18l6.591,15.94a.542.542,0,0,0,.5.335H68.46a.542.542,0,0,0,.5-.335l6.591-15.94h.18a2.007,2.007,0,0,0,2.165-2.17V369.17A2.007,2.007,0,0,0,75.73,367H71.147m-1.3,0H48.051m11.439,13.563H64.66l-1.4,7.052H59.489Zm-1.083,7.052H54.636l-1.4-7.052h5.171Zm1.083-8.137v-7.053h6.787l-1.4,7.053Zm-1.083,0H53.02l-1.4-7.053h6.787Zm-7.891-7.053,1.4,7.053H46.434l-2.916-7.053Zm-3.634,8.138h5.25l1.4,7.052H49.8ZM68.1,387.614H64.364l1.4-7.052h5.25Zm3.364-8.137H65.98l1.4-7.053h7Zm5.351-9.223a.942.942,0,0,1-1.083,1.085H42.165a.942.942,0,0,1-1.083-1.085V369.17a.943.943,0,0,1,1.083-1.085H75.73a.943.943,0,0,1,1.083,1.085Z" transform="translate(-40 -367)" fill="none" stroke="#517494" stroke-width="1.5"/>
      </g>
      <path id="Icon_awesome-reply" data-name="Icon awesome-reply" d="M22.1,5.572,14.379.207c-.676-.47-1.742-.088-1.742.641V3.674C5.589,3.739,0,4.875,0,10.25c0,2.169,1.737,4.318,3.657,5.441.6.351,1.453-.089,1.232-.658-1.99-5.12.944-6.479,7.749-6.557v3.1c0,.731,1.066,1.11,1.742.641L22.1,6.855A.746.746,0,0,0,22.1,5.572Z" transform="translate(32.262 0) rotate(21)" fill="none" stroke="#1d364b" stroke-width="2"/>
      <path id="Icon_awesome-folder-open" data-name="Icon awesome-folder-open" d="M30.116,16.8l-3.808,6.7A3.35,3.35,0,0,1,23.4,25.207H2.368a1.3,1.3,0,0,1-1.09-1.946l3.808-6.7a3.351,3.351,0,0,1,2.907-1.712H29.026a1.3,1.3,0,0,1,1.09,1.946ZM7.993,13.128H25.241V10.54a2.557,2.557,0,0,0-2.524-2.588H14.3L10.938,4.5H2.524A2.557,2.557,0,0,0,0,7.088V22.082L3.632,15.7A5.043,5.043,0,0,1,7.993,13.128Z" transform="translate(39.915 14.34)" fill="none" stroke="#517494" stroke-width="2" opacity="0.74"/>
    </g>
    <g id="Icon_feather-loader" data-name="Icon feather-loader" transform="translate(151.403 804.8)">
      <path id="Path_481" data-name="Path 481" d="M18,3V4.517" transform="translate(-14.207 -3)" fill="none" stroke="#517494" stroke-linecap="round" stroke-linejoin="round" stroke-width="1.5"/>
      <path id="Path_482" data-name="Path 482" d="M18,27v1.517" transform="translate(-14.207 -20.931)" fill="none" stroke="#517494" stroke-linecap="round" stroke-linejoin="round" stroke-width="1.5"/>
      <path id="Path_483" data-name="Path 483" d="M7.395,7.395,8.469,8.469" transform="translate(-6.284 -6.284)" fill="none" stroke="#517494" stroke-linecap="round" stroke-linejoin="round" stroke-width="1.5"/>
      <path id="Path_484" data-name="Path 484" d="M24.36,24.36l1.074,1.074" transform="translate(-18.958 -18.958)" fill="none" stroke="#517494" stroke-linecap="round" stroke-linejoin="round" stroke-width="1.5"/>
      <path id="Path_485" data-name="Path 485" d="M3,18H4.517" transform="translate(-3 -14.207)" fill="none" stroke="#517494" stroke-linecap="round" stroke-linejoin="round" stroke-width="1.5"/>
      <path id="Path_486" data-name="Path 486" d="M27,18h1.517" transform="translate(-20.931 -14.207)" fill="none" stroke="#517494" stroke-linecap="round" stroke-linejoin="round" stroke-width="1.5"/>
      <path id="Path_487" data-name="Path 487" d="M7.395,25.434,8.469,24.36" transform="translate(-6.284 -18.958)" fill="none" stroke="#517494" stroke-linecap="round" stroke-linejoin="round" stroke-width="1.5"/>
      <path id="Path_488" data-name="Path 488" d="M24.36,8.469l1.074-1.074" transform="translate(-18.958 -6.284)" fill="none" stroke="#517494" stroke-linecap="round" stroke-linejoin="round" stroke-width="1.5"/>
    </g>
  </g>
</svg>
