<svg xmlns="http://www.w3.org/2000/svg" width="64.577" height="34.929" viewBox="0 0 64.577 34.929">
  <g id="Group_2891" data-name="Group 2891" transform="translate(-100.773 -1131.757)">
    <g id="Group_2826" data-name="Group 2826" transform="translate(136.424 1140.817)">
      <path id="Icon_awesome-folder-open" data-name="Icon awesome-folder-open" d="M27.747,15.832,24.238,22a3.087,3.087,0,0,1-2.678,1.578H2.181a1.193,1.193,0,0,1-1-1.793l3.509-6.168a3.087,3.087,0,0,1,2.678-1.578H26.742a1.193,1.193,0,0,1,1,1.793ZM7.364,12.449H23.256V10.065A2.356,2.356,0,0,0,20.93,7.68H13.178l-3.1-3.18H2.326A2.356,2.356,0,0,0,0,6.885V20.7l3.347-5.883A4.646,4.646,0,0,1,7.364,12.449Z" transform="translate(0 -4.5)" fill="none" stroke="#517494" stroke-width="2" opacity="0.79"/>
      <g id="Icon_feather-loader" data-name="Icon feather-loader" transform="translate(11.783 10.963)">
        <path id="Path_481" data-name="Path 481" d="M18,3V4.4" transform="translate(-14.505 -3)" fill="none" stroke="#517494" stroke-linecap="round" stroke-linejoin="round" stroke-width="1.5"/>
        <path id="Path_482" data-name="Path 482" d="M18,27v1.4" transform="translate(-14.505 -21.408)" fill="none" stroke="#517494" stroke-linecap="round" stroke-linejoin="round" stroke-width="1.5"/>
        <path id="Path_483" data-name="Path 483" d="M7.395,7.395l.989.989" transform="translate(-6.371 -6.371)" fill="none" stroke="#517494" stroke-linecap="round" stroke-linejoin="round" stroke-width="1.5"/>
        <path id="Path_484" data-name="Path 484" d="M24.36,24.36l.989.989" transform="translate(-19.383 -19.383)" fill="none" stroke="#517494" stroke-linecap="round" stroke-linejoin="round" stroke-width="1.5"/>
        <path id="Path_485" data-name="Path 485" d="M3,18H4.4" transform="translate(-3 -14.505)" fill="none" stroke="#517494" stroke-linecap="round" stroke-linejoin="round" stroke-width="1.5"/>
        <path id="Path_486" data-name="Path 486" d="M27,18h1.4" transform="translate(-21.408 -14.505)" fill="none" stroke="#517494" stroke-linecap="round" stroke-linejoin="round" stroke-width="1.5"/>
        <path id="Path_487" data-name="Path 487" d="M7.395,25.349l.989-.989" transform="translate(-6.371 -19.383)" fill="none" stroke="#517494" stroke-linecap="round" stroke-linejoin="round" stroke-width="1.5"/>
        <path id="Path_488" data-name="Path 488" d="M24.36,8.384l.989-.989" transform="translate(-19.383 -6.371)" fill="none" stroke="#517494" stroke-linecap="round" stroke-linejoin="round" stroke-width="1.5"/>
      </g>
    </g>
    <g id="Group_2825" data-name="Group 2825" transform="translate(100.773 1136.607)">
      <path id="Icon_simple-codesandbox" data-name="Icon simple-codesandbox" d="M3,4.935,11.893,0l8.893,4.935.077,9.829L11.893,19.74,3,14.805ZM4.776,6.976v3.913l2.845,1.53V15.31L11,17.2v-6.8Zm14.238,0L12.79,10.395v6.8l3.378-1.888V12.42l2.845-1.531V6.975ZM5.666,5.429l6.212,3.408L18.1,5.4,14.811,3.593l-2.9,1.6L8.993,3.574,5.665,5.429Z" transform="translate(-3 8.781)" fill="#1d364b"/>
      <path id="Icon_simple-codesandbox-2" data-name="Icon simple-codesandbox" d="M3,4.935,11.893,0l8.893,4.935.077,9.829L11.893,19.74,3,14.805ZM4.776,6.976v3.913l2.845,1.53V15.31L11,17.2v-6.8Zm14.238,0L12.79,10.395v6.8l3.378-1.888V12.42l2.845-1.531V6.975ZM5.666,5.429l6.212,3.408L18.1,5.4,14.811,3.593l-2.9,1.6L8.993,3.574,5.665,5.429Z" transform="translate(12.926 10.338)" fill="#1d364b"/>
      <path id="Icon_simple-codesandbox-3" data-name="Icon simple-codesandbox" d="M3,3.834,9.909,0l6.909,3.834.059,7.636L9.909,15.336,3,11.5ZM4.38,5.42v3.04L6.59,9.648v2.247l2.625,1.467V8.076Zm11.061,0L10.606,8.076v5.286l2.625-1.467V9.649l2.21-1.189V5.419Zm-10.37-1.2L9.9,6.866,14.734,4.2l-2.558-1.4L9.923,4.034,7.656,2.777,5.07,4.218Z" transform="translate(7.98)" fill="#1d364b"/>
    </g>
    <path id="Icon_awesome-reply" data-name="Icon awesome-reply" d="M16.753,4.224,10.9.157C10.387-.2,9.579.09,9.579.643V2.785C4.236,2.834,0,3.7,0,7.769a5.3,5.3,0,0,0,2.772,4.124c.454.266,1.1-.068.934-.5-1.508-3.88.715-4.911,5.873-4.97V8.777c0,.554.808.842,1.32.486L16.753,5.2A.566.566,0,0,0,16.753,4.224Z" transform="translate(128.76 1133.062) rotate(21)" fill="#fff" stroke="#1d364b" stroke-width="2"/>
  </g>
</svg>
