<svg xmlns="http://www.w3.org/2000/svg" width="49.515" height="58.231" viewBox="0 0 49.515 58.231">
  <g id="Group_2817" data-name="Group 2817" transform="translate(-594.411 -262.862)">
    <g id="Group_2816" data-name="Group 2816" transform="translate(595.411 263.862)">
      <g id="Group_2815" data-name="Group 2815" transform="translate(0 0)">
        <g id="Group_2814" data-name="Group 2814">
          <g id="Group_2813" data-name="Group 2813">
            <path id="Path_489" data-name="Path 489" d="M652.479,282.88v49.213H611.961a6.994,6.994,0,0,1-7-7V282.88a7,7,0,0,1,7-7.018H645.48A7.011,7.011,0,0,1,652.479,282.88Z" transform="translate(-604.964 -275.862)" fill="none" stroke="#517494" stroke-miterlimit="10" stroke-width="2"/>
            <g id="Group_2812" data-name="Group 2812" transform="translate(8.592 19.906)">
              <g id="Group_2811" data-name="Group 2811" transform="translate(0.831)">
                <path id="Rectangle_931" data-name="Rectangle 931" d="M1.191,0H2.479A1.108,1.108,0,0,1,3.587,1.108V2.383a0,0,0,0,1,0,0h-2.4A1.191,1.191,0,0,1,0,1.191v0A1.191,1.191,0,0,1,1.191,0Z" fill="#517494"/>
                <path id="Rectangle_932" data-name="Rectangle 932" d="M0,0H2.4A1.191,1.191,0,0,1,3.587,1.191v0A1.191,1.191,0,0,1,2.4,2.383H0a0,0,0,0,1,0,0V0A0,0,0,0,1,0,0Z" transform="translate(3.047 1.698)" fill="#517494"/>
                <rect id="Rectangle_933" data-name="Rectangle 933" width="20.076" height="2.383" rx="1.191" transform="translate(10.632)" fill="#517494"/>
                <rect id="Rectangle_934" data-name="Rectangle 934" width="20.076" height="2.383" rx="1.191" transform="translate(10.632 4.753)" fill="#517494"/>
                <rect id="Rectangle_935" data-name="Rectangle 935" width="20.076" height="2.383" rx="1.191" transform="translate(10.632 9.505)" fill="#517494"/>
                <path id="Rectangle_936" data-name="Rectangle 936" d="M1.191,0h2.4a0,0,0,0,1,0,0V2.383a0,0,0,0,1,0,0h-2.4A1.191,1.191,0,0,1,0,1.191v0A1.191,1.191,0,0,1,1.191,0Z" transform="translate(0 3.397)" fill="#517494"/>
                <path id="Rectangle_937" data-name="Rectangle 937" d="M1.191,0h2.4a0,0,0,0,1,0,0V2.383a0,0,0,0,1,0,0h-2.4A1.191,1.191,0,0,1,0,1.191v0A1.191,1.191,0,0,1,1.191,0Z" transform="translate(6.634 10.874) rotate(-180)" fill="#517494"/>
                <path id="Path_490" data-name="Path 490" d="M626.9,334.635h2.4v2.383h-2.4a1.191,1.191,0,0,1-1.191-1.192h0A1.191,1.191,0,0,1,626.9,334.635Z" transform="translate(-625.708 -327.842)" fill="#517494"/>
                <path id="Rectangle_938" data-name="Rectangle 938" d="M1.191,0h2.4a0,0,0,0,1,0,0V2.383a0,0,0,0,1,0,0h-2.4A1.191,1.191,0,0,1,0,1.191v0A1.191,1.191,0,0,1,1.191,0Z" transform="translate(6.634 7.477) rotate(180)" fill="#517494"/>
                <path id="Rectangle_939" data-name="Rectangle 939" d="M1.191,0h2.4a0,0,0,0,1,0,0V2.383a0,0,0,0,1,0,0h-2.4A1.191,1.191,0,0,1,0,1.191v0A1.191,1.191,0,0,1,1.191,0Z" transform="translate(0 10.19)" fill="#517494"/>
                <path id="Rectangle_940" data-name="Rectangle 940" d="M0,0H2.4A1.191,1.191,0,0,1,3.587,1.191v0A1.191,1.191,0,0,1,2.4,2.383H0a0,0,0,0,1,0,0V0A0,0,0,0,1,0,0Z" transform="translate(3.047 11.888)" fill="#517494"/>
                <path id="Rectangle_941" data-name="Rectangle 941" d="M1.191,0h2.4a0,0,0,0,1,0,0V2.383a0,0,0,0,1,0,0h-2.4A1.191,1.191,0,0,1,0,1.191v0A1.191,1.191,0,0,1,1.191,0Z" transform="translate(0 13.586)" fill="#517494"/>
                <path id="Rectangle_942" data-name="Rectangle 942" d="M0,0H3.587a0,0,0,0,1,0,0V0A2.383,2.383,0,0,1,1.2,2.383H0a0,0,0,0,1,0,0V0A0,0,0,0,1,0,0Z" transform="translate(3.587 19.365) rotate(180)" fill="#517494"/>
                <path id="Path_491" data-name="Path 491" d="M632.415,353.327h2.4A1.191,1.191,0,0,1,636,354.519h0a1.191,1.191,0,0,1-1.191,1.191h-2.4Z" transform="translate(-629.368 -338.043)" fill="#517494"/>
              </g>
              <path id="Rectangle_943" data-name="Rectangle 943" d="M3.224,0H5.073A3.223,3.223,0,0,1,8.3,3.223v0A3.224,3.224,0,0,1,5.073,6.447H3.223A3.223,3.223,0,0,1,0,3.224v0A3.224,3.224,0,0,1,3.224,0Z" transform="translate(0 18.945)" fill="#517494"/>
              <path id="Path_492" data-name="Path 492" d="M632.293,379.011l-.934-4.819h-4.945l-.933,4.819a1.41,1.41,0,0,0,1.384,1.678h4.043A1.41,1.41,0,0,0,632.293,379.011Z" transform="translate(-624.739 -349.429)" fill="#517494"/>
              <rect id="Rectangle_944" data-name="Rectangle 944" width="3.657" height="1.662" rx="0.831" transform="translate(2.32 20.507)" fill="#517494"/>
            </g>
          </g>
        </g>
      </g>
    </g>
    <text id="PSR" transform="translate(604.818 279.227)" fill="#517494" font-size="11" font-family="MyriadPro-Bold, Myriad Pro" font-weight="700"><tspan x="0" y="0">PSR</tspan></text>
  </g>
</svg>
