<svg id="Group_2825" data-name="Group 2825" xmlns="http://www.w3.org/2000/svg" width="45.607" height="40.6" viewBox="0 0 45.607 40.6">
  <path id="Icon_simple-codesandbox" data-name="Icon simple-codesandbox" d="M3,6.661,15,0l12,6.661.1,13.267L15,26.645,3,19.984ZM5.4,9.416V14.7l3.84,2.065v3.9l4.56,2.549V14.031Zm19.218,0-8.4,4.615v9.184l4.56-2.549v-3.9l3.84-2.066V9.415ZM6.6,7.329l8.385,4.6,8.4-4.641L18.942,4.849,15.027,7.009,11.089,4.824,6.6,7.327Z" transform="translate(-3 11.852)" fill="#1d364b"/>
  <path id="Icon_simple-codesandbox-2" data-name="Icon simple-codesandbox" d="M3,6.661,15,0l12,6.661.1,13.267L15,26.645,3,19.984ZM5.4,9.416V14.7l3.84,2.065v3.9l4.56,2.549V14.031Zm19.218,0-8.4,4.615v9.184l4.56-2.549v-3.9l3.84-2.066V9.415ZM6.6,7.329l8.385,4.6,8.4-4.641L18.942,4.849,15.027,7.009,11.089,4.824,6.6,7.327Z" transform="translate(18.497 13.955)" fill="#1d364b"/>
  <path id="Icon_simple-codesandbox-3" data-name="Icon simple-codesandbox" d="M3,5.175,12.326,0l9.326,5.175.08,10.307L12.326,20.7,3,15.526Zm1.862,2.14v4.1l2.984,1.6v3.033l3.543,1.98V10.9Zm14.931,0L13.267,10.9v7.135l3.543-1.98V13.024l2.984-1.605v-4.1ZM5.8,5.694,12.31,9.268l6.529-3.605-3.453-1.9L12.344,5.445l-3.059-1.7L5.795,5.693Z" transform="translate(11.821)" fill="#1d364b"/>
</svg>
