<svg xmlns="http://www.w3.org/2000/svg" width="23.587" height="21.116" viewBox="0 0 23.587 21.116">
  <g id="Group_3667" data-name="Group 3667" transform="translate(-1458.77 -411.5)">
    <g id="Group_3341" data-name="Group 3341" transform="translate(1458.77 411.5)">
      <g id="Trolley" transform="translate(0 0)">
        <path id="Path_364" data-name="Path 364" d="M715.546,127.251a1.634,1.634,0,1,1-1.892,1.617,1.767,1.767,0,0,1,1.892-1.617Z" transform="translate(-705.378 -111.046)" fill="#1b1c1c" fill-rule="evenodd"/>
        <path id="Path_365" data-name="Path 365" d="M718.748,126.183v1.773a.888.888,0,0,1-.946.809h0a.888.888,0,0,1-.946-.809v-1.773Z" transform="translate(-707.64 -110.247)" fill="#454a4d" fill-rule="evenodd"/>
        <path id="Path_366" data-name="Path 366" d="M719.193,132.4a.347.347,0,0,1,.371.317.342.342,0,0,1-.371.31.334.334,0,0,1-.363-.31.339.339,0,0,1,.363-.317Z" transform="translate(-709.034 -114.894)" fill="#bac8d3" fill-rule="evenodd"/>
        <path id="Path_367" data-name="Path 367" d="M751.675,127.251a1.634,1.634,0,1,1-1.892,1.617,1.772,1.772,0,0,1,1.892-1.617Z" transform="translate(-731.384 -111.046)" fill="#1b1c1c" fill-rule="evenodd"/>
        <path id="Path_368" data-name="Path 368" d="M754.877,126.183v1.773a.888.888,0,0,1-.946.809h0a.888.888,0,0,1-.946-.809v-1.773Z" transform="translate(-733.64 -110.247)" fill="#454a4d" fill-rule="evenodd"/>
        <path id="Path_369" data-name="Path 369" d="M755.3,132.4a.339.339,0,0,1,.363.317.334.334,0,0,1-.363.31.341.341,0,0,1-.371-.31.346.346,0,0,1,.371-.317Z" transform="translate(-735.012 -114.894)" fill="#bac8d3" fill-rule="evenodd"/>
        <path id="Path_370" data-name="Path 370" d="M715.979,109.186a.324.324,0,1,1,0,.64h-5.7a2.037,2.037,0,0,0-1.309.465,1.479,1.479,0,0,0-.536,1.112h0a1.482,1.482,0,0,0,.536,1.119,2.033,2.033,0,0,0,1.309.458h14.65a.327.327,0,1,1,0,.647h-14.65a2.821,2.821,0,0,1-1.837-.654,2.064,2.064,0,0,1-.765-1.57h0a2.051,2.051,0,0,1,.765-1.564,2.821,2.821,0,0,1,1.837-.654Z" transform="translate(-701.72 -97.371)" fill="#5b8087"/>
        <path id="Path_371" data-name="Path 371" d="M705.9,78.74l17.441.667a.359.359,0,0,1,.363.33h0v5.075a.359.359,0,0,1-.347.33L707.923,87.05a.377.377,0,0,1-.434-.276l-.615-2.372c0-.02-.008-.034-.008-.054l-.654-2.514Zm17.039,1.308-2.586-.094L720.4,81.2l2.539-.041Zm-3.351-.128-2.271-.081.063,1.415,2.255-.04Zm-3.043-.115-2.649-.1.181,1.6,2.539-.047Zm-3.422-.128-2.9-.115.386,1.8,2.7-.047Zm-3.682-.141-3.075-.121.52,2.008,2.941-.047Zm-3.54-.8Zm17.039,5.789v-.957l-2.436.162.047,1.092Zm0-1.617v-1.1l-2.507.047.047,1.22Zm-14.775,3.444,2.657-.33-.347-1.611-2.768.189Zm3.414-.418,2.224-.276-.165-1.462-2.389.162Zm2.981-.371,2.255-.283-.063-1.294-2.35.162Zm3.02-.377,2.208-.269-.047-1.132-2.224.148Zm-11.37-3.37-.694-2.675a.322.322,0,0,1,.292-.391.472.472,0,0,1,.095-.013Zm.852.256.481,1.874,2.8-.189-.37-1.732Zm3.682-.061.363,1.7,2.452-.168-.173-1.577Zm3.406-.054.173,1.536,2.4-.162-.071-1.415Zm3.264-.054.071,1.375,2.231-.148-.047-1.267Z" transform="translate(-700.192 -74.299)" fill="#7eadb5"/>
        <path id="Path_372" data-name="Path 372" d="M692.463,67.208a.315.315,0,0,1-.284.377.378.378,0,0,1-.449-.243l-1.041-4.037-4.668-.593a.331.331,0,0,1-.315-.364.37.37,0,0,1,.426-.269l4.92.62v.007a.343.343,0,0,1,.307.243Z" transform="translate(-685.288 -61.519)" fill="#7eadb5"/>
        <path id="Path_373" data-name="Path 373" d="M684.64,60.729l3.848.512-.213,1.125-3.84-.512Z" transform="translate(-684.396 -60.513)" fill="#9e2519" fill-rule="evenodd"/>
        <path id="Path_374" data-name="Path 374" d="M695.419,61.556l.646.088-.292,1.557-.639-.081Z" transform="translate(-691.935 -61.131)" fill="#710000" fill-rule="evenodd"/>
        <path id="Path_375" data-name="Path 375" d="M684.586,59.875l.647.081-.284,1.564-.647-.088Z" transform="translate(-684.302 -59.875)" fill="#710000" fill-rule="evenodd"/>
      </g>
    </g>
    <g id="Group_3413" data-name="Group 3413" transform="translate(5 36.142)">
      <path id="Path_561" data-name="Path 561" d="M6.429,0A6.429,6.429,0,1,1,0,6.429,6.429,6.429,0,0,1,6.429,0Z" transform="translate(1457 383)" fill="#fff"/>
      <g id="Group_346" data-name="Group 346" transform="translate(1457.756 383.756)">
        <g id="Group_3313" data-name="Group 3313" transform="translate(0 0)">
          <g id="Icon_feather-check-circle" data-name="Icon feather-check-circle" transform="translate(0 0)">
            <path id="Path_351" data-name="Path 351" d="M14.884,8.39v.547a5.942,5.942,0,1,1-3.524-5.431" transform="translate(-3 -2.991)" fill="none" stroke="#09b403" stroke-linecap="round" stroke-linejoin="round" stroke-width="1.5"/>
            <path id="Path_352" data-name="Path 352" d="M21.225,6l-5.942,5.948L13.5,10.165" transform="translate(-9.34 -4.808)" fill="none" stroke="#09b403" stroke-linecap="round" stroke-linejoin="round" stroke-width="1.5"/>
          </g>
        </g>
      </g>
    </g>
  </g>
</svg>
