<svg xmlns="http://www.w3.org/2000/svg" width="26.973" height="26.88" viewBox="0 0 26.973 26.88">
  <path id="Icon_ionic-md-settings" data-name="Icon ionic-md-settings" d="M25.262,17.059a7.78,7.78,0,0,0,.063-1.244c0-.436-.063-.808-.063-1.244l2.671-2.052a.571.571,0,0,0,.127-.808L25.516,7.418a.62.62,0,0,0-.764-.249L21.572,8.413a9.259,9.259,0,0,0-2.163-1.244l-.445-3.3a.682.682,0,0,0-.636-.5H13.238a.682.682,0,0,0-.636.5l-.509,3.3A10.773,10.773,0,0,0,9.93,8.413L6.749,7.169a.6.6,0,0,0-.764.249L3.441,11.71a.751.751,0,0,0,.127.808L6.3,14.571c0,.436-.063.808-.063,1.244s.063.808.063,1.244L3.632,19.111a.571.571,0,0,0-.127.808L6.05,24.212a.62.62,0,0,0,.764.249l3.181-1.244a9.258,9.258,0,0,0,2.163,1.244l.509,3.3a.617.617,0,0,0,.636.5h5.089a.682.682,0,0,0,.636-.5l.509-3.3A10.767,10.767,0,0,0,21.7,23.217l3.181,1.244a.6.6,0,0,0,.764-.249l2.545-4.292a.75.75,0,0,0-.127-.808Zm-9.479,3.11a4.355,4.355,0,1,1,4.453-4.354A4.377,4.377,0,0,1,15.783,20.169Z" transform="translate(-2.329 -2.375)" fill="none" stroke="#517494" stroke-width="2"/>
</svg>
