<svg xmlns="http://www.w3.org/2000/svg" xmlns:xlink="http://www.w3.org/1999/xlink" width="43" height="43" viewBox="0 0 43 43">
  <defs>
    <filter id="Ellipse_284" x="0" y="0" width="43" height="43" filterUnits="userSpaceOnUse">
      <feOffset dy="3" input="SourceAlpha"/>
      <feGaussianBlur stdDeviation="3" result="blur"/>
      <feFlood flood-opacity="0.161"/>
      <feComposite operator="in" in2="blur"/>
      <feComposite in="SourceGraphic"/>
    </filter>
  </defs>
  <g id="Group_2265" data-name="Group 2265" transform="translate(9.238 5.839)">
    <g transform="matrix(1, 0, 0, 1, -9.24, -5.84)" filter="url(#Ellipse_284)">
      <circle id="Ellipse_284-2" data-name="Ellipse 284" cx="12.5" cy="12.5" r="12.5" transform="translate(9 6)" fill="#fff"/>
    </g>
    <path id="Icon_awesome-linkedin-in" data-name="Icon awesome-linkedin-in" d="M2.5,11.153H.184V3.707H2.5ZM1.339,2.691A1.345,1.345,0,1,1,2.678,1.34,1.35,1.35,0,0,1,1.339,2.691Zm9.811,8.461H8.843V7.528c0-.864-.017-1.972-1.2-1.972-1.2,0-1.386.938-1.386,1.909v3.687H3.945V3.707H6.162V4.723h.032a2.429,2.429,0,0,1,2.188-1.2c2.34,0,2.77,1.541,2.77,3.542v4.09Z" transform="translate(7.004 6.38)" fill="#0668b2"/>
  </g>
</svg>
