<svg xmlns="http://www.w3.org/2000/svg" xmlns:xlink="http://www.w3.org/1999/xlink" width="51" height="51" viewBox="0 0 51 51">
  <defs>
    <filter id="Ellipse_281" x="0" y="0" width="51" height="51" filterUnits="userSpaceOnUse">
      <feOffset dy="3" input="SourceAlpha"/>
      <feGaussianBlur stdDeviation="3" result="blur"/>
      <feFlood flood-opacity="0.161"/>
      <feComposite operator="in" in2="blur"/>
      <feComposite in="SourceGraphic"/>
    </filter>
  </defs>
  <g id="Group_2294" data-name="Group 2294" transform="translate(-438 -1063.121)">
    <g transform="matrix(1, 0, 0, 1, 438, 1063.12)" filter="url(#Ellipse_281)">
      <circle id="Ellipse_281-2" data-name="Ellipse 281" cx="16.5" cy="16.5" r="16.5" transform="translate(9 6)" fill="#fff"/>
    </g>
    <path id="Icon_awesome-map-marker-alt" data-name="Icon awesome-map-marker-alt" d="M6.379,18.578C1,10.777,0,9.977,0,7.11a7.11,7.11,0,1,1,14.22,0c0,2.867-1,3.667-6.379,11.468a.889.889,0,0,1-1.461,0Zm.731-8.505A2.963,2.963,0,1,0,4.148,7.11,2.963,2.963,0,0,0,7.11,10.073Z" transform="translate(455.89 1076.14)" fill="red"/>
  </g>
</svg>
