<svg xmlns="http://www.w3.org/2000/svg" width="16.065" height="13.326" viewBox="0 0 16.065 13.326">
  <g id="Icon_feather-camera" data-name="Icon feather-camera" transform="translate(-1 -4)">
    <path id="Path_419" data-name="Path 419" d="M16.565,15.456a1.37,1.37,0,0,1-1.37,1.37H2.87a1.37,1.37,0,0,1-1.37-1.37V7.924a1.37,1.37,0,0,1,1.37-1.37H5.609L6.978,4.5h4.109l1.37,2.054H15.2a1.37,1.37,0,0,1,1.37,1.37Z" fill="none" stroke="#8da2b5" stroke-linecap="round" stroke-linejoin="round" stroke-width="1"/>
    <path id="Path_420" data-name="Path 420" d="M17.478,16.239A2.739,2.739,0,1,1,14.739,13.5,2.739,2.739,0,0,1,17.478,16.239Z" transform="translate(-5.707 -4.891)" fill="none" stroke="#8da2b5" stroke-linecap="round" stroke-linejoin="round" stroke-width="1"/>
  </g>
</svg>
