<svg xmlns="http://www.w3.org/2000/svg" width="34.026" height="32.845" viewBox="0 0 34.026 32.845">
  <g id="Group_2738" data-name="Group 2738" transform="translate(-182 -189)">
    <g id="Trolley" transform="translate(182 189)">
      <path id="Path_364" data-name="Path 364" d="M716.278,127.251a2.619,2.619,0,1,1-2.624,2.624,2.618,2.618,0,0,1,2.624-2.624Z" transform="translate(-701.627 -99.643)" fill="#1b1c1c" fill-rule="evenodd"/>
      <path id="Path_365" data-name="Path 365" d="M719.48,126.183v2.876a1.316,1.316,0,0,1-1.312,1.312h0a1.316,1.316,0,0,1-1.312-1.312v-2.876Z" transform="translate(-703.516 -99.013)" fill="#454a4d" fill-rule="evenodd"/>
      <path id="Path_366" data-name="Path 366" d="M719.333,132.4a.513.513,0,0,1,.514.514.5.5,0,0,1-.514.5.5.5,0,0,1-.5-.5.5.5,0,0,1,.5-.514Z" transform="translate(-704.682 -102.682)" fill="#bac8d3" fill-rule="evenodd"/>
      <path id="Path_367" data-name="Path 367" d="M752.407,127.251a2.619,2.619,0,1,1-2.624,2.624,2.625,2.625,0,0,1,2.624-2.624Z" transform="translate(-722.951 -99.643)" fill="#1b1c1c" fill-rule="evenodd"/>
      <path id="Path_368" data-name="Path 368" d="M755.609,126.183v2.876a1.316,1.316,0,0,1-1.312,1.312h0a1.316,1.316,0,0,1-1.312-1.312v-2.876Z" transform="translate(-724.841 -99.013)" fill="#454a4d" fill-rule="evenodd"/>
      <path id="Path_369" data-name="Path 369" d="M755.447,132.4a.5.5,0,0,1,.5.514.5.5,0,0,1-.5.5.5.5,0,0,1-.514-.5.513.513,0,0,1,.514-.514Z" transform="translate(-725.991 -102.682)" fill="#bac8d3" fill-rule="evenodd"/>
      <path id="Path_370" data-name="Path 370" d="M719.19,109.186a.519.519,0,0,1,0,1.039h-7.905a2.557,2.557,0,0,0-2.559,2.559h0a2.54,2.54,0,0,0,2.559,2.559H731.6a.525.525,0,1,1,0,1.049H711.285a3.621,3.621,0,0,1-3.608-3.608h0a3.621,3.621,0,0,1,3.608-3.6Z" transform="translate(-698.099 -88.98)" fill="#5b8087"/>
      <path id="Path_371" data-name="Path 371" d="M706.058,78.74l24.186,1.083a.538.538,0,0,1,.5.536h0v8.233a.543.543,0,0,1-.481.536l-21.409,3.095a.529.529,0,0,1-.6-.448l-.853-3.849c0-.033-.011-.054-.011-.087l-.908-4.078Zm23.628,2.121-3.586-.153.065,2.023,3.521-.066Zm-4.647-.208-3.149-.131.088,2.3,3.127-.066Zm-4.221-.186-3.674-.164.252,2.6,3.521-.076Zm-4.745-.208-4.024-.186.536,2.92,3.751-.077Zm-5.107-.229-4.264-.2.722,3.258,4.078-.077Zm-4.909-1.29Zm23.628,9.392V86.58l-3.378.262.066,1.771Zm0-2.624V83.726l-3.477.077.065,1.979ZM709.2,91.1l3.685-.536-.481-2.613-3.838.306Zm4.734-.678,3.084-.448-.229-2.373-3.313.262Zm4.133-.6,3.127-.459-.087-2.1-3.258.263Zm4.188-.612,3.061-.437-.066-1.837-3.083.241Zm-15.767-5.467-.962-4.341a.517.517,0,0,1,.4-.634.565.565,0,0,1,.131-.022Zm1.181.415.667,3.04,3.881-.306-.514-2.81Zm5.106-.1.5,2.755,3.4-.273-.24-2.559Zm4.723-.087.241,2.493,3.324-.262-.1-2.3Zm4.527-.088.1,2.231,3.094-.241-.066-2.056Z" transform="translate(-696.819 -71.01)" fill="#7eadb5"/>
      <path id="Path_372" data-name="Path 372" d="M695.078,70.4a.505.505,0,0,1-.394.612.516.516,0,0,1-.623-.394l-1.443-6.549-6.473-.962a.52.52,0,0,1,.153-1.028l6.823,1.006V63.1a.5.5,0,0,1,.426.394Z" transform="translate(-685.128 -61.174)" fill="#7eadb5"/>
      <path id="Path_373" data-name="Path 373" d="M684.72,60.729l5.336.831-.3,1.826-5.325-.831Z" transform="translate(-684.38 -60.379)" fill="#9e2519" fill-rule="evenodd"/>
      <path id="Path_374" data-name="Path 374" d="M695.529,61.556l.9.142-.4,2.526-.886-.131Z" transform="translate(-690.696 -60.867)" fill="#710000" fill-rule="evenodd"/>
      <path id="Path_375" data-name="Path 375" d="M684.7,59.875l.9.131-.393,2.537-.9-.142Z" transform="translate(-684.302 -59.875)" fill="#710000" fill-rule="evenodd"/>
    </g>
  </g>
</svg>
