<svg xmlns="http://www.w3.org/2000/svg" width="83.667" height="98.281" viewBox="0 0 83.667 98.281">
  <g id="Group_2817" data-name="Group 2817" transform="translate(-602.964 -273.862)">
    <g id="Group_2816" data-name="Group 2816" transform="translate(604.964 275.862)">
      <g id="Group_2815" data-name="Group 2815">
        <g id="Group_2814" data-name="Group 2814">
          <g id="Group_2813" data-name="Group 2813">
            <path id="Path_489" data-name="Path 489" d="M684.631,287.628v82.514H616.7a11.726,11.726,0,0,1-11.732-11.734v-70.78A11.733,11.733,0,0,1,616.7,275.862h56.2A11.756,11.756,0,0,1,684.631,287.628Z" transform="translate(-604.964 -275.862)" fill="none" stroke="#517494" stroke-miterlimit="10" stroke-width="4"/>
            <g id="Group_2812" data-name="Group 2812" transform="translate(14.407 33.376)">
              <g id="Group_2811" data-name="Group 2811" transform="translate(1.393)">
                <path id="Rectangle_931" data-name="Rectangle 931" d="M2,0h2.16A1.858,1.858,0,0,1,6.015,1.858V3.995a0,0,0,0,1,0,0H2A2,2,0,0,1,0,2V2A2,2,0,0,1,2,0Z" fill="#517494"/>
                <path id="Rectangle_932" data-name="Rectangle 932" d="M0,0H4.017a2,2,0,0,1,2,2V2a2,2,0,0,1-2,2H0a0,0,0,0,1,0,0V0A0,0,0,0,1,0,0Z" transform="translate(5.109 2.847)" fill="#517494"/>
                <rect id="Rectangle_933" data-name="Rectangle 933" width="33.66" height="3.995" rx="1.997" transform="translate(17.826)" fill="#517494"/>
                <rect id="Rectangle_934" data-name="Rectangle 934" width="33.66" height="3.995" rx="1.997" transform="translate(17.826 7.969)" fill="#517494"/>
                <rect id="Rectangle_935" data-name="Rectangle 935" width="33.66" height="3.995" rx="1.997" transform="translate(17.826 15.937)" fill="#517494"/>
                <path id="Rectangle_936" data-name="Rectangle 936" d="M2,0H6.015a0,0,0,0,1,0,0V3.995a0,0,0,0,1,0,0H2A2,2,0,0,1,0,2V2A2,2,0,0,1,2,0Z" transform="translate(0 5.695)" fill="#517494"/>
                <path id="Rectangle_937" data-name="Rectangle 937" d="M2,0H6.015a0,0,0,0,1,0,0V3.995a0,0,0,0,1,0,0H2A2,2,0,0,1,0,2V2A2,2,0,0,1,2,0Z" transform="translate(11.124 18.232) rotate(-180)" fill="#517494"/>
                <path id="Path_490" data-name="Path 490" d="M627.705,334.635h4.017v3.995h-4.017a2,2,0,0,1-2-2h0A2,2,0,0,1,627.705,334.635Z" transform="translate(-625.708 -323.245)" fill="#517494"/>
                <path id="Rectangle_938" data-name="Rectangle 938" d="M2,0H6.015a0,0,0,0,1,0,0V3.995a0,0,0,0,1,0,0H2A2,2,0,0,1,0,2V2A2,2,0,0,1,2,0Z" transform="translate(11.124 12.537) rotate(180)" fill="#517494"/>
                <path id="Rectangle_939" data-name="Rectangle 939" d="M2,0H6.015a0,0,0,0,1,0,0V3.995a0,0,0,0,1,0,0H2A2,2,0,0,1,0,2V2A2,2,0,0,1,2,0Z" transform="translate(0 17.085)" fill="#517494"/>
                <path id="Rectangle_940" data-name="Rectangle 940" d="M0,0H4.017a2,2,0,0,1,2,2V2a2,2,0,0,1-2,2H0a0,0,0,0,1,0,0V0A0,0,0,0,1,0,0Z" transform="translate(5.109 19.932)" fill="#517494"/>
                <path id="Rectangle_941" data-name="Rectangle 941" d="M2,0H6.015a0,0,0,0,1,0,0V3.995a0,0,0,0,1,0,0H2A2,2,0,0,1,0,2V2A2,2,0,0,1,2,0Z" transform="translate(0 22.78)" fill="#517494"/>
                <path id="Rectangle_942" data-name="Rectangle 942" d="M0,0H6.015a0,0,0,0,1,0,0V1.373A2.622,2.622,0,0,1,3.392,3.995H0a0,0,0,0,1,0,0V0A0,0,0,0,1,0,0Z" transform="translate(6.015 32.469) rotate(180)" fill="#517494"/>
                <path id="Path_491" data-name="Path 491" d="M632.415,353.327h4.018a2,2,0,0,1,2,2h0a2,2,0,0,1-2,2h-4.018Z" transform="translate(-627.306 -327.7)" fill="#517494"/>
              </g>
              <path id="Rectangle_943" data-name="Rectangle 943" d="M4.13,0H9.781A4.129,4.129,0,0,1,13.91,4.129V6.68a4.13,4.13,0,0,1-4.13,4.13H4.129A4.129,4.129,0,0,1,0,6.68V4.13A4.13,4.13,0,0,1,4.13,0Z" transform="translate(0 31.765)" fill="#517494"/>
              <path id="Path_492" data-name="Path 492" d="M636.92,382.272l-1.565-8.08h-8.291l-1.564,8.08a2.364,2.364,0,0,0,2.321,2.814H634.6A2.364,2.364,0,0,0,636.92,382.272Z" transform="translate(-624.254 -332.673)" fill="#517494"/>
              <rect id="Rectangle_944" data-name="Rectangle 944" width="6.132" height="2.787" rx="1.393" transform="translate(3.889 34.383)" fill="#517494"/>
            </g>
          </g>
        </g>
      </g>
    </g>
    <text id="PSR" transform="translate(620.737 304.21)" fill="#517494" font-size="21" font-family="MyriadPro-Bold, Myriad Pro" font-weight="700"><tspan x="0" y="0">PSR</tspan></text>
  </g>
</svg>
