<svg xmlns="http://www.w3.org/2000/svg" width="20.498" height="14.649" viewBox="0 0 20.498 14.649">
  <path id="Icon_awesome-users" data-name="Icon awesome-users" d="M2.925,8.1A1.95,1.95,0,1,0,.975,6.15,1.952,1.952,0,0,0,2.925,8.1Zm13.649,0a1.95,1.95,0,1,0-1.95-1.95A1.952,1.952,0,0,0,16.573,8.1Zm.975.975H15.6a1.944,1.944,0,0,0-1.374.567,4.456,4.456,0,0,1,2.288,3.333h2.011A.974.974,0,0,0,19.5,12v-.975A1.952,1.952,0,0,0,17.548,9.074Zm-7.8,0A3.412,3.412,0,1,0,6.337,5.662,3.41,3.41,0,0,0,9.749,9.074Zm2.34.975h-.253a4.711,4.711,0,0,1-4.174,0H7.409a3.511,3.511,0,0,0-3.51,3.51v.877A1.463,1.463,0,0,0,5.362,15.9h8.774A1.463,1.463,0,0,0,15.6,14.436v-.877A3.511,3.511,0,0,0,12.089,10.049ZM5.274,9.641A1.944,1.944,0,0,0,3.9,9.074H1.95A1.952,1.952,0,0,0,0,11.024V12a.974.974,0,0,0,.975.975H2.983A4.468,4.468,0,0,1,5.274,9.641Z" transform="translate(0.5 -1.75)" fill="none" stroke="#517494" stroke-width="1"/>
</svg>
