<svg xmlns="http://www.w3.org/2000/svg" width="18.186" height="18.186" viewBox="0 0 18.186 18.186">
  <g id="Icon_feather-settings" data-name="Icon feather-settings" transform="translate(-0.75 -0.75)">
    <path id="Path_475" data-name="Path 475" d="M18.051,15.775A2.275,2.275,0,1,1,15.775,13.5,2.275,2.275,0,0,1,18.051,15.775Z" transform="translate(-5.933 -5.933)" fill="none" stroke="#000" stroke-linecap="round" stroke-linejoin="round" stroke-width="1.5"/>
    <path id="Path_476" data-name="Path 476" d="M15.455,12.118a1.251,1.251,0,0,0,.25,1.38l.046.046A1.518,1.518,0,1,1,13.6,15.69l-.046-.046a1.262,1.262,0,0,0-2.139.895v.129a1.517,1.517,0,0,1-3.034,0V16.6a1.251,1.251,0,0,0-.819-1.145,1.251,1.251,0,0,0-1.38.25l-.046.046A1.518,1.518,0,1,1,4,13.6l.046-.046a1.262,1.262,0,0,0-.895-2.139H3.017a1.517,1.517,0,1,1,0-3.034h.068A1.251,1.251,0,0,0,4.23,7.567a1.251,1.251,0,0,0-.25-1.38l-.046-.046A1.518,1.518,0,1,1,6.081,4l.046.046a1.251,1.251,0,0,0,1.38.25h.061a1.251,1.251,0,0,0,.758-1.145V3.017a1.517,1.517,0,0,1,3.034,0v.068A1.262,1.262,0,0,0,13.5,3.98l.046-.046A1.518,1.518,0,1,1,15.69,6.081l-.046.046a1.251,1.251,0,0,0-.25,1.38v.061a1.251,1.251,0,0,0,1.145.758h.129a1.517,1.517,0,0,1,0,3.034H16.6a1.251,1.251,0,0,0-1.145.758Z" transform="translate(0 0)" fill="none" stroke="#000" stroke-linecap="round" stroke-linejoin="round" stroke-width="1.5"/>
  </g>
</svg>
